Chapakala19.glyphspackage
{
glyphname = exclam;
layers = (
{
layerId = m01;
shapes = (
{
closed = 1;
nodes = (
(133,-16,o),
(159,-16,qs),
(185,-16,o),
(222,21,o),
(222,47,qs),
(222,73,o),
(185,110,o),
(159,110,qs),
(133,110,o),
(96,74,o),
(96,47,qs),
(96,21,o)
);
},
{
closed = 1;
nodes = (
(130,818,o),
(105,773,o),
(105,729,qs),
(105,712,o),
(113,634,o),
(118,584,qs),
(123,547,o),
(132,466,o),
(139,387,o),
(145,312,o),
(145,282,qs),
(145,214,l),
(179,214,l),
(179,282,ls),
(179,312,o),
(183,387,o),
(190,466,o),
(198,547,o),
(202,584,qs),
(208,634,o),
(215,711,o),
(215,729,qs),
(214,819,o),
(161,820,qs),
(159,820,ls)
);
}
);
userData = {
assembly = "PUSHW[ ]	/* 4 values pushed */
14 5 0 4
CALL[ ]	/* CallFunction */
NPUSHW[ ]	/* 31 values pushed */
6 14 22 14 38 14 54 14 70 14 86 14 102 14 118 14 134 14 150 14 166 14 182 14 198 14 214 14 230 14 15
DELTAP1[ ]	/* DeltaExceptionP1 */
NPUSHW[ ]	/* 3 values pushed */
245 14 1
DELTAP1[ ]	/* DeltaExceptionP1 */
NPUSHW[ ]	/* 3 values pushed */
5 14 1
DELTAP2[ ]	/* DeltaExceptionP2 */
PUSHW[ ]	/* 1 value pushed */
14
SRP0[ ]	/* SetRefPoint0 */
PUSHW[ ]	/* 1 value pushed */
6
MDRP[10000]	/* MoveDirectRelPt */
PUSHW[ ]	/* 1 value pushed */
6
MDAP[1]	/* MoveDirectAbsPt */
PUSHW[ ]	/* 3 values pushed */
24 0 14
SRP1[ ]	/* SetRefPoint1 */
SRP2[ ]	/* SetRefPoint2 */
IP[ ]	/* InterpolatePts */
PUSHW[ ]	/* 1 value pushed */
24
MDAP[1]	/* MoveDirectAbsPt */
PUSHW[ ]	/* 2 values pushed */
23 4
MIRP[10100]	/* MoveIndirectRelPt */
IUP[0]	/* InterpolateUntPts */
IUP[1]	/* InterpolateUntPts */";
};
width = 320;
}
);
note = exclam;
unicode = 33;
}
{
glyphname = one;
layers = (
{
layerId = m01;
shapes = (
{
closed = 1;
nodes = (
(133,0,l),
(530,0,l),
(530,31,l),
(409,31,ls),
(398,31,o),
(369,56,o),
(369,72,qs),
(369,783,l),
(323,783,l),
(281,739,o),
(172,704,o),
(112,703,q),
(112,677,l),
(240,677,ls),
(256,677,o),
(278,663,o),
(278,645,qs),
(278,73,ls),
(278,60,o),
(252,31,o),
(237,31,qs),
(133,31,l)
);
}
);
width = 614;
}
);
note = one;
unicode = 49;
}
{
glyphname = seven;
layers = (
{
layerId = m01;
shapes = (
{
closed = 1;
nodes = (
(356,18,o),
(358,44,q),
(358,153,o),
(387,332,o),
(440,499,o),
(518,665,o),
(568,759,q),
(568,773,l),
(202,773,ls),
(183,773,o),
(144,780,o),
(128,783,qs),
(121,785,o),
(109,786,o),
(105,787,qs),
(102,787,l),
(108,791,l),
(66,532,l),
(93,532,l),
(116,621,ls),
(125,657,o),
(153,695,o),
(179,695,qs),
(503,695,l),
(444,584,o),
(349,388,o),
(282,224,o),
(245,99,o),
(245,59,qs),
(245,18,o),
(272,-16,o),
(301,-16,qs),
(327,-16,o)
);
}
);
width = 614;
}
);
note = seven;
unicode = 55;
}
{
glyphname = eight;
layers = (
{
layerId = m01;
shapes = (
{
closed = 1;
nodes = (
(95,57,o),
(169,8,o),
(261,-16,o),
(306,-16,qs),
(361,-16,o),
(458,16,o),
(530,75,o),
(572,164,o),
(572,222,qs),
(572,265,o),
(550,329,o),
(508,379,o),
(446,418,o),
(405,437,q),
(432,456,o),
(480,495,o),
(516,537,o),
(537,585,o),
(537,615,qs),
(537,660,o),
(498,725,o),
(435,768,o),
(356,788,o),
(316,788,qs),
(270,788,o),
(187,760,o),
(122,707,o),
(83,632,o),
(83,584,qs),
(83,581,ls),
(84,544,o),
(105,489,o),
(143,444,o),
(195,406,o),
(227,386,q),
(222,384,o),
(204,373,o),
(199,371,qs),
(169,355,o),
(114,323,o),
(73,281,o),
(49,224,o),
(48,183,qs),
(48,132,o)
);
},
{
closed = 1;
nodes = (
(143,278,o),
(180,325,o),
(233,360,o),
(263,372,q),
(274,368,o),
(298,359,o),
(311,355,qs),
(344,344,o),
(415,316,o),
(474,276,o),
(511,220,o),
(511,180,qs),
(511,137,o),
(478,75,o),
(422,36,o),
(351,17,o),
(313,17,qs),
(270,17,o),
(200,36,o),
(149,77,o),
(121,142,o),
(121,188,qs),
(121,220,o)
);
},
{
closed = 1;
nodes = (
(176,709,o),
(219,742,o),
(277,759,o),
(308,759,qs),
(384,759,o),
(471,687,o),
(471,605,qs),
(471,601,ls),
(471,550,o),
(412,470,o),
(363,453,q),
(343,459,ls),
(310,470,o),
(242,494,o),
(187,531,o),
(150,586,o),
(150,626,qs),
(150,660,o)
);
}
);
userData = {
assembly = "PUSHW[ ]	/* 4 values pushed */
44 5 0 4
CALL[ ]	/* CallFunction */
NPUSHW[ ]	/* 31 values pushed */
6 44 22 44 38 44 54 44 70 44 86 44 102 44 118 44 134 44 150 44 166 44 182 44 198 44 214 44 230 44 15
DELTAP1[ ]	/* DeltaExceptionP1 */
NPUSHW[ ]	/* 3 values pushed */
245 44 1
DELTAP1[ ]	/* DeltaExceptionP1 */
NPUSHW[ ]	/* 3 values pushed */
5 44 1
DELTAP2[ ]	/* DeltaExceptionP2 */
IUP[0]	/* InterpolateUntPts */
IUP[1]	/* InterpolateUntPts */";
};
width = 616;
}
);
note = eight;
unicode = 56;
}
{
glyphname = nine;
layers = (
{
layerId = m01;
shapes = (
{
closed = 1;
nodes = (
(109,27,o),
(160,-2,o),
(224,-16,o),
(253,-16,qs),
(340,-16,o),
(459,63,o),
(532,187,o),
(565,340,o),
(565,414,qs),
(565,478,o),
(540,611,o),
(478,720,o),
(377,788,o),
(300,788,qs),
(242,788,o),
(149,746,o),
(83,675,o),
(46,577,o),
(46,523,qs),
(46,474,o),
(75,391,o),
(132,330,o),
(213,296,o),
(263,296,qs),
(268,296,ls),
(324,297,o),
(426,362,o),
(463,412,q),
(463,336,o),
(446,194,o),
(401,83,o),
(321,14,o),
(256,12,qs),
(247,12,o),
(219,15,o),
(193,24,o),
(173,40,o),
(173,54,qs),
(173,66,o),
(180,83,o),
(185,91,qs),
(191,99,o),
(197,114,o),
(197,123,qs),
(197,148,o),
(168,179,o),
(143,179,qs),
(110,179,o),
(75,138,o),
(75,107,qs),
(75,73,o)
);
},
{
closed = 1;
nodes = (
(167,655,o),
(199,718,o),
(256,759,o),
(300,759,qs),
(343,759,o),
(403,719,o),
(441,656,o),
(459,581,o),
(459,545,qs),
(459,508,o),
(441,437,o),
(403,379,o),
(343,344,o),
(301,344,qs),
(257,344,o),
(200,379,o),
(167,436,o),
(153,508,o),
(153,545,qs),
(153,580,o)
);
}
);
width = 616;
}
);
note = nine;
unicode = 57;
}
{
glyphname = question;
layers = (
{
layerId = m01;
shapes = (
{
closed = 1;
nodes = (
(320,-44,o),
(351,-13,qs),
(376,12,o),
(376,81,o),
(351,106,qs),
(319,136,o),
(217,136,o),
(185,106,qs),
(160,81,o),
(160,12,o),
(185,-13,qs),
(216,-44,o)
);
},
{
closed = 1;
nodes = (
(281,746,qs),
(350,707,o),
(386,667,qs),
(436,614,o),
(443,553,qs),
(444,544,o),
(444,534,qs),
(444,514,o),
(439,496,qs),
(430,468,o),
(392,437,o),
(357,431,qs),
(345,429,o),
(288,425,o),
(272,423,qs),
(240,419,o),
(228,403,qs),
(221,393,o),
(221,384,qs),
(221,382,o),
(221,380,qs),
(221,230,l),
(309,230,l),
(309,371,l),
(318,372,o),
(360,375,o),
(377,378,qs),
(496,396,o),
(525,485,qs),
(532,509,o),
(532,534,qs),
(532,546,o),
(531,558,qs),
(522,631,o),
(463,695,qs),
(419,742,o),
(341,786,qs),
(321,798,o),
(307,803,qs),
(282,813,o),
(257,813,qs),
(223,813,o),
(192,795,qs),
(177,787,o),
(158,771,qs),
(100,723,o),
(54,663,qs),
(36,639,l),
(73,627,ls),
(92,620,o),
(125,620,o),
(137,623,qs),
(166,629,o),
(203,663,o),
(209,684,qs),
(212,693,o),
(212,712,o),
(209,721,q),
(245,753,o),
(257,757,q),
(264,756,o)
);
}
);
width = 576;
}
);
note = question;
unicode = 63;
}
{
glyphname = at;
layers = (
{
layerId = m01;
shapes = (
{
closed = 1;
nodes = (
(59,150,o),
(174,43,o),
(328,-18,o),
(416,-18,qs),
(479,-18,o),
(602,18,o),
(705,85,o),
(785,181,o),
(805,243,q),
(770,243,l),
(715,132,o),
(546,27,o),
(420,27,qs),
(335,27,o),
(214,78,o),
(135,170,o),
(99,301,o),
(99,383,qs),
(99,466,o),
(144,611,o),
(233,718,o),
(366,780,o),
(454,780,qs),
(516,780,o),
(619,745,o),
(694,679,o),
(736,582,o),
(736,519,qs),
(736,481,o),
(717,384,o),
(673,296,o),
(600,235,o),
(544,235,qs),
(528,235,o),
(517,251,o),
(517,264,qs),
(517,280,o),
(524,300,qs),
(610,598,l),
(548,598,l),
(528,542,l),
(518,580,o),
(480,611,o),
(453,611,qs),
(386,611,o),
(288,546,o),
(225,450,o),
(195,342,o),
(195,298,qs),
(195,280,o),
(206,243,o),
(230,214,o),
(262,196,o),
(283,196,qs),
(306,196,o),
(351,216,o),
(391,247,o),
(426,285,o),
(441,302,qs),
(443,305,o),
(459,322,o),
(461,325,q),
(461,280,o),
(477,228,o),
(499,202,o),
(524,196,o),
(532,196,qs),
(590,196,o),
(682,255,o),
(746,346,o),
(780,456,o),
(780,506,qs),
(780,580,o),
(732,696,o),
(646,778,o),
(523,821,o),
(450,821,qs),
(357,821,o),
(192,752,o),
(66,634,o),
(-7,475,o),
(-7,385,qs),
(-7,298,o)
);
},
{
closed = 1;
nodes = (
(311,442,o),
(359,521,o),
(423,576,o),
(459,576,qs),
(476,576,o),
(496,564,o),
(504,543,o),
(506,517,o),
(506,504,qs),
(506,499,ls),
(506,468,o),
(480,384,o),
(433,306,o),
(368,253,o),
(329,253,qs),
(312,253,o),
(294,266,o),
(285,287,o),
(283,313,o),
(283,326,qs),
(283,356,o)
);
}
);
userData = {
assembly = "PUSHW[ ]	/* 4 values pushed */
94 4 99 4
CALL[ ]	/* CallFunction */
NPUSHW[ ]	/* 3 values pushed */
250 99 1
DELTAP1[ ]	/* DeltaExceptionP1 */
NPUSHW[ ]	/* 3 values pushed */
10 99 1
DELTAP2[ ]	/* DeltaExceptionP2 */
NPUSHW[ ]	/* 31 values pushed */
9 99 25 99 41 99 57 99 73 99 89 99 105 99 121 99 137 99 153 99 169 99 185 99 201 99 217 99 233 99 15
DELTAP1[ ]	/* DeltaExceptionP1 */
PUSHW[ ]	/* 1 value pushed */
99
SRP0[ ]	/* SetRefPoint0 */
PUSHW[ ]	/* 1 value pushed */
20
MDRP[10000]	/* MoveDirectRelPt */
PUSHW[ ]	/* 1 value pushed */
20
MDAP[1]	/* MoveDirectAbsPt */
PUSHW[ ]	/* 1 value pushed */
94
SRP0[ ]	/* SetRefPoint0 */
PUSHW[ ]	/* 1 value pushed */
46
MDRP[11100]	/* MoveDirectRelPt */
SVTCA[0]	/* SetFreedomAndProjectionVectorToAxis */
PUSHW[ ]	/* 4 values pushed */
88 1 28 4
CALL[ ]	/* CallFunction */
PUSHW[ ]	/* 1 value pushed */
28
SRP0[ ]	/* SetRefPoint0 */
PUSHW[ ]	/* 1 value pushed */
15
MDRP[10000]	/* MoveDirectRelPt */
PUSHW[ ]	/* 2 values pushed */
49 2
MIRP[10100]	/* MoveIndirectRelPt */
PUSHW[ ]	/* 3 values pushed */
73 28 88
SRP1[ ]	/* SetRefPoint1 */
SRP2[ ]	/* SetRefPoint2 */
IP[ ]	/* InterpolatePts */
IUP[0]	/* InterpolateUntPts */
IUP[1]	/* InterpolateUntPts */";
};
width = 819;
}
);
note = at;
unicode = 64;
}
{
glyphname = C;
layers = (
{
layerId = m01;
shapes = (
{
closed = 1;
nodes = (
(103,157,o),
(197,47,o),
(332,-17,o),
(416,-17,qs),
(512,-17,o),
(657,78,o),
(693,167,qs),
(703,190,o),
(716,244,o),
(717,269,q),
(693,269,l),
(678,216,o),
(638,124,o),
(577,57,o),
(491,18,o),
(429,18,qs),
(353,18,o),
(256,87,o),
(199,194,o),
(177,325,o),
(177,387,qs),
(177,425,o),
(183,516,o),
(201,604,o),
(233,685,o),
(285,748,o),
(361,786,o),
(413,786,qs),
(473,786,o),
(555,737,o),
(614,658,o),
(653,559,o),
(670,511,q),
(670,509,o),
(671,507,q),
(671,504,o),
(671,504,q),
(699,504,l),
(685,817,l),
(657,817,l),
(614,744,l),
(566,779,o),
(463,821,o),
(406,821,qs),
(321,821,o),
(189,742,o),
(99,616,o),
(51,462,o),
(51,385,qs),
(51,303,o)
);
}
);
width = 802;
}
);
note = C;
unicode = 67;
}
{
glyphname = K;
layers = (
{
layerId = m01;
shapes = (
{
closed = 1;
nodes = (
(34,0,l),
(390,0,l),
(390,30,l),
(302,30,ls),
(291,30,o),
(262,56,o),
(262,70,qs),
(262,281,l),
(394,422,l),
(626,79,l),
(627,75,o),
(628,73,qs),
(630,67,o),
(630,66,qs),
(630,57,o),
(620,43,o),
(607,35,o),
(592,30,o),
(586,30,qs),
(517,30,l),
(517,0,l),
(865,0,l),
(865,28,l),
(825,30,o),
(773,46,o),
(755,73,qs),
(473,492,ls),
(472,493,o),
(474,497,o),
(485,512,o),
(512,541,o),
(560,592,o),
(632,668,o),
(684,722,qs),
(713,751,o),
(791,776,o),
(828,780,q),
(828,804,l),
(506,804,l),
(506,780,l),
(520,780,o),
(553,777,o),
(583,765,o),
(603,743,o),
(603,724,qs),
(603,712,o),
(590,685,o),
(582,676,qs),
(262,334,l),
(262,734,ls),
(262,742,o),
(272,758,o),
(287,771,o),
(304,780,o),
(310,780,qs),
(390,780,l),
(390,804,l),
(34,804,l),
(34,779,l),
(99,780,ls),
(115,780,o),
(154,756,o),
(154,734,qs),
(154,70,ls),
(154,64,o),
(146,50,o),
(133,38,o),
(119,30,o),
(113,30,qs),
(34,30,l)
);
}
);
width = 867;
}
);
note = K;
unicode = 75;
}
{
glyphname = N;
layers = (
{
layerId = m01;
shapes = (
{
closed = 1;
nodes = (
(323,0,l),
(323,27,l),
(299,31,o),
(250,46,o),
(213,73,o),
(189,115,o),
(189,144,qs),
(189,675,l),
(711,-17,l),
(748,-17,l),
(748,664,ls),
(748,690,o),
(766,730,o),
(796,760,o),
(836,778,o),
(858,779,q),
(858,804,l),
(594,804,l),
(594,779,l),
(617,778,o),
(660,760,o),
(693,729,o),
(713,685,o),
(713,659,qs),
(713,158,l),
(214,804,l),
(26,804,l),
(26,779,l),
(30,779,ls),
(49,778,o),
(97,773,o),
(112,759,qs),
(116,755,o),
(129,742,o),
(140,729,o),
(149,719,o),
(149,718,qs),
(149,140,ls),
(149,116,o),
(126,79,o),
(89,50,o),
(46,32,o),
(26,28,q),
(26,0,l)
);
}
);
userData = {
assembly = "PUSHW[ ]	/* 4 values pushed */
36 4 5 4
CALL[ ]	/* CallFunction */
IUP[0]	/* InterpolateUntPts */
IUP[1]	/* InterpolateUntPts */";
};
width = 908;
}
);
note = N;
unicode = 78;
}
{
glyphname = O;
layers = (
{
layerId = m01;
shapes = (
{
closed = 1;
nodes = (
(100,173,o),
(192,56,o),
(326,-16,o),
(412,-16,qs),
(502,-16,o),
(643,52,o),
(741,168,o),
(792,319,o),
(792,403,qs),
(792,483,o),
(736,634,o),
(635,750,o),
(496,821,o),
(413,821,qs),
(327,821,o),
(193,749,o),
(100,633,o),
(51,483,o),
(51,403,qs),
(51,323,o)
);
},
{
closed = 1;
nodes = (
(195,599,o),
(246,714,o),
(341,789,o),
(419,789,qs),
(499,789,o),
(595,715,o),
(646,602,o),
(661,467,o),
(661,406,qs),
(661,346,o),
(642,209,o),
(590,92,o),
(496,15,o),
(419,15,qs),
(366,15,o),
(289,50,o),
(236,110,o),
(202,189,o),
(183,276,o),
(177,365,o),
(177,406,qs),
(177,465,o)
);
}
);
width = 866;
}
);
note = O;
unicode = 79;
}
{
glyphname = S;
layers = (
{
layerId = m01;
shapes = (
{
closed = 1;
nodes = (
(151,58,o),
(165,50,o),
(171,46,qs),
(184,38,o),
(218,15,o),
(230,10,qs),
(263,-4,o),
(331,-17,o),
(366,-17,qs),
(425,-17,o),
(522,21,o),
(591,89,o),
(628,184,o),
(628,243,qs),
(628,301,o),
(581,376,o),
(503,423,o),
(406,451,o),
(357,463,qs),
(312,474,o),
(227,498,o),
(162,534,o),
(124,591,o),
(124,634,qs),
(124,669,o),
(153,726,o),
(202,767,o),
(264,789,o),
(298,789,qs),
(353,789,o),
(438,743,o),
(500,670,o),
(541,575,o),
(554,528,q),
(580,528,l),
(580,813,l),
(549,813,l),
(492,743,l),
(447,780,o),
(353,821,o),
(299,821,qs),
(247,821,o),
(160,784,o),
(96,720,o),
(61,632,o),
(61,581,qs),
(61,505,o),
(150,401,o),
(222,380,qs),
(237,376,o),
(303,357,o),
(377,336,o),
(443,317,o),
(458,313,qs),
(480,307,o),
(518,282,o),
(545,247,o),
(561,205,o),
(561,182,qs),
(561,143,o),
(529,81,o),
(477,38,o),
(408,15,o),
(371,15,qs),
(306,15,o),
(213,58,o),
(145,131,o),
(98,231,o),
(81,290,q),
(53,290,l),
(53,-8,l),
(85,-8,l),
(148,60,l)
);
}
);
userData = {
assembly = "PUSHW[ ]	/* 3 values pushed */
3 26 3
CALL[ ]	/* CallFunction */
PUSHW[ ]	/* 1 value pushed */
26
SRP0[ ]	/* SetRefPoint0 */
PUSHW[ ]	/* 1 value pushed */
1
MDRP[10000]	/* MoveDirectRelPt */
PUSHW[ ]	/* 1 value pushed */
1
MDAP[1]	/* MoveDirectAbsPt */
IUP[0]	/* InterpolateUntPts */
IUP[1]	/* InterpolateUntPts */";
};
width = 700;
}
);
note = S;
unicode = 83;
}
{
glyphname = T;
layers = (
{
layerId = m01;
shapes = (
{
closed = 1;
nodes = (
(180,0,l),
(548,0,l),
(548,30,l),
(454,30,ls),
(436,30,o),
(420,57,o),
(420,70,qs),
(420,691,ls),
(420,740,o),
(444,782,o),
(481,782,qs),
(531,782,o),
(602,728,o),
(648,648,o),
(673,553,o),
(679,512,q),
(708,512,l),
(692,804,l),
(41,804,l),
(22,512,l),
(51,512,l),
(59,552,o),
(85,647,o),
(130,727,o),
(201,782,o),
(252,782,qs),
(289,782,o),
(311,739,o),
(311,691,qs),
(311,70,ls),
(311,52,o),
(290,30,o),
(276,30,qs),
(180,30,l)
);
}
);
width = 740;
}
);
note = T;
unicode = 84;
}
{
glyphname = X;
layers = (
{
layerId = m01;
shapes = (
{
closed = 1;
nodes = (
(292,0,l),
(292,28,l),
(276,29,o),
(241,32,o),
(212,45,o),
(193,71,o),
(193,93,qs),
(193,110,o),
(208,145,o),
(218,159,qs),
(349,348,l),
(529,80,l),
(537,72,o),
(537,59,qs),
(537,46,o),
(517,28,o),
(496,28,qs),
(440,28,l),
(440,0,l),
(744,0,l),
(744,28,l),
(723,29,o),
(683,43,o),
(670,62,qs),
(408,438,l),
(599,714,ls),
(623,746,o),
(687,774,o),
(724,779,q),
(724,804,l),
(440,804,l),
(440,779,l),
(452,779,o),
(483,776,o),
(511,765,o),
(531,743,o),
(531,723,qs),
(531,708,o),
(517,679,o),
(510,669,qs),
(386,475,l),
(216,729,ls),
(211,737,o),
(211,747,qs),
(211,764,o),
(248,779,o),
(266,779,qs),
(315,779,l),
(315,804,l),
(-7,804,l),
(-7,779,l),
(25,778,o),
(69,756,o),
(90,729,q),
(325,393,l),
(139,122,ls),
(113,82,o),
(38,31,o),
(-7,28,q),
(-7,0,l)
);
}
);
userData = {
assembly = "PUSHW[ ]	/* 3 values pushed */
30 22 3
CALL[ ]	/* CallFunction */
PUSHW[ ]	/* 1 value pushed */
22
SRP0[ ]	/* SetRefPoint0 */
PUSHW[ ]	/* 1 value pushed */
45
MDRP[10000]	/* MoveDirectRelPt */
PUSHW[ ]	/* 1 value pushed */
45
MDAP[1]	/* MoveDirectAbsPt */
PUSHW[ ]	/* 1 value pushed */
30
SRP0[ ]	/* SetRefPoint0 */
PUSHW[ ]	/* 1 value pushed */
61
MDRP[11100]	/* MoveDirectRelPt */
IUP[0]	/* InterpolateUntPts */
IUP[1]	/* InterpolateUntPts */";
};
width = 783;
}
);
note = X;
unicode = 88;
}
{
glyphname = Y;
layers = (
{
layerId = m01;
shapes = (
{
closed = 1;
nodes = (
(216,0,l),
(578,0,l),
(578,30,l),
(493,30,ls),
(483,30,o),
(453,51,o),
(453,66,qs),
(453,339,l),
(640,678,l),
(644,687,o),
(649,695,qs),
(656,709,o),
(672,739,o),
(691,763,o),
(714,779,o),
(730,779,qs),
(777,779,l),
(777,804,l),
(485,804,l),
(485,779,l),
(506,779,o),
(547,770,o),
(578,754,o),
(597,729,o),
(597,712,qs),
(598,693,o),
(585,673,q),
(432,397,l),
(427,406,l),
(421,409,o),
(396,446,qs),
(386,462,o),
(354,509,o),
(308,580,o),
(249,675,o),
(210,737,qs),
(208,741,o),
(208,747,qs),
(208,755,o),
(220,766,o),
(240,774,o),
(265,779,o),
(275,779,qs),
(328,779,l),
(328,804,l),
(-12,804,l),
(-12,779,l),
(22,779,o),
(70,759,o),
(94,721,qs),
(344,334,l),
(344,63,ls),
(344,57,o),
(334,45,o),
(322,36,o),
(309,30,o),
(306,30,qs),
(216,30,l)
);
}
);
width = 784;
}
);
note = Y;
unicode = 89;
}
{
glyphname = bracketleft;
layers = (
{
layerId = m01;
shapes = (
{
closed = 1;
nodes = (
(140,-124,l),
(342,-124,l),
(342,-96,l),
(243,-96,ls),
(237,-96,o),
(224,-86,o),
(216,-70,o),
(211,-53,o),
(211,-47,qs),
(211,749,ls),
(211,765,o),
(234,798,o),
(252,798,qs),
(342,798,l),
(342,821,l),
(140,821,l)
);
}
);
width = 362;
}
);
note = bracketleft;
unicode = 91;
}
{
glyphname = a;
layers = (
{
layerId = m01;
shapes = (
{
closed = 1;
nodes = (
(79,25,o),
(125,-4,o),
(183,-17,o),
(212,-17,qs),
(265,-17,o),
(361,33,o),
(399,78,q),
(420,38,o),
(470,-16,o),
(512,-17,qs),
(520,-17,o),
(544,-10,o),
(569,-1,o),
(591,14,o),
(597,23,q),
(582,43,l),
(572,38,o),
(550,28,o),
(540,28,qs),
(529,28,o),
(510,40,o),
(496,57,o),
(486,78,o),
(486,86,qs),
(486,424,ls),
(486,452,o),
(451,493,o),
(396,519,o),
(329,532,o),
(298,532,qs),
(266,532,o),
(190,519,o),
(123,485,o),
(78,432,o),
(78,393,qs),
(78,367,o),
(105,329,o),
(132,329,qs),
(157,329,o),
(189,352,o),
(189,378,qs),
(189,388,o),
(181,404,o),
(176,412,qs),
(171,420,o),
(162,436,o),
(162,446,qs),
(162,447,ls),
(163,465,o),
(190,486,o),
(224,497,o),
(262,499,o),
(274,499,qs),
(289,499,o),
(333,488,o),
(372,468,o),
(399,437,o),
(399,416,qs),
(399,307,l),
(371,304,o),
(298,291,o),
(220,270,o),
(145,240,o),
(86,197,o),
(49,141,o),
(49,104,qs),
(49,70,o)
);
},
{
closed = 1;
nodes = (
(170,193,o),
(210,227,o),
(261,251,o),
(288,258,qs),
(300,261,ls),
(320,265,o),
(376,277,o),
(399,279,q),
(399,163,ls),
(399,133,o),
(368,81,o),
(319,41,o),
(261,18,o),
(235,18,qs),
(193,18,o),
(146,74,o),
(146,113,qs),
(146,145,o)
);
}
);
width = 617;
}
);
note = a;
unicode = 97;
}
{
glyphname = b;
layers = (
{
layerId = m01;
shapes = (
{
closed = 1;
nodes = (
(123,-7,l),
(171,71,l),
(211,37,o),
(295,-6,o),
(344,-8,qs),
(398,-7,o),
(484,41,o),
(544,118,o),
(575,216,o),
(575,266,qs),
(575,316,o),
(551,413,o),
(499,487,o),
(419,532,o),
(362,532,qs),
(311,532,o),
(234,483,o),
(193,443,q),
(193,835,l),
(12,822,l),
(12,796,l),
(25,795,o),
(59,790,o),
(88,778,o),
(108,755,o),
(108,735,qs),
(108,110,ls),
(108,77,o),
(100,14,o),
(92,-8,q),
(112,-8,l)
);
},
{
closed = 1;
nodes = (
(202,371,o),
(234,445,o),
(292,495,o),
(340,495,qs),
(385,495,o),
(439,447,o),
(468,377,o),
(478,297,o),
(478,263,qs),
(478,228,o),
(470,145,o),
(440,70,o),
(384,21,o),
(337,21,qs),
(288,21,o),
(232,65,o),
(201,133,o),
(193,215,o),
(193,253,qs),
(193,288,o)
);
}
);
width = 619;
}
);
note = b;
unicode = 98;
}
{
glyphname = g;
layers = (
{
layerId = m01;
shapes = (
{
closed = 1;
nodes = (
(75,-194,o),
(145,-218,o),
(220,-226,o),
(246,-226,qs),
(287,-226,o),
(383,-211,o),
(462,-171,o),
(516,-102,o),
(516,-51,qs),
(516,-22,o),
(489,24,o),
(446,56,o),
(392,72,o),
(364,72,qs),
(158,72,ls),
(136,72,o),
(95,96,o),
(95,122,qs),
(95,152,o),
(138,184,o),
(166,185,qs),
(291,185,ls),
(326,185,o),
(390,214,o),
(440,261,o),
(470,323,o),
(470,358,qs),
(470,381,o),
(457,416,o),
(449,434,qs),
(445,441,o),
(438,455,o),
(436,463,q),
(434,467,l),
(434,481,o),
(465,499,o),
(474,499,qs),
(485,499,o),
(495,485,o),
(500,475,qs),
(504,465,o),
(518,446,o),
(536,446,qs),
(552,446,o),
(571,470,o),
(571,487,qs),
(571,514,o),
(537,544,o),
(511,544,qs),
(484,544,o),
(439,517,o),
(418,499,qs),
(409,490,l),
(370,509,o),
(301,532,o),
(261,532,qs),
(219,532,o),
(145,505,o),
(89,459,o),
(57,397,o),
(57,361,qs),
(57,329,o),
(75,276,o),
(101,238,o),
(125,216,o),
(130,215,q),
(136,216,l),
(136,209,o),
(134,205,qs),
(133,203,o),
(132,202,q),
(115,194,o),
(83,175,o),
(58,152,o),
(43,121,o),
(43,100,qs),
(43,78,o),
(62,45,o),
(93,21,o),
(134,2,o),
(155,-5,q),
(150,-7,o),
(123,-17,o),
(118,-19,qs),
(101,-25,o),
(67,-39,o),
(42,-60,o),
(26,-90,o),
(26,-113,qs),
(26,-150,o)
);
},
{
closed = 1;
nodes = (
(138,-28,o),
(200,-8,o),
(268,-3,o),
(293,-3,qs),
(315,-3,o),
(372,-6,o),
(422,-23,o),
(458,-60,o),
(458,-92,qs),
(458,-125,o),
(414,-167,o),
(351,-192,o),
(284,-201,o),
(261,-201,qs),
(239,-201,o),
(181,-194,o),
(130,-174,o),
(95,-137,o),
(95,-107,qs),
(95,-70,o)
);
},
{
closed = 1;
nodes = (
(153,440,o),
(182,482,o),
(228,507,o),
(259,507,qs),
(290,507,o),
(335,481,o),
(365,439,o),
(378,385,o),
(378,358,qs),
(378,331,o),
(366,279,o),
(339,237,o),
(293,211,o),
(262,211,qs),
(228,211,o),
(182,236,o),
(153,278,o),
(139,333,o),
(139,361,qs),
(139,388,o)
);
}
);
userData = {
assembly = "PUSHW[ ]	/* 4 values pushed */
100 5 120 4
CALL[ ]	/* CallFunction */
NPUSHW[ ]	/* 3 values pushed */
250 120 1
DELTAP1[ ]	/* DeltaExceptionP1 */
NPUSHW[ ]	/* 3 values pushed */
10 120 1
DELTAP2[ ]	/* DeltaExceptionP2 */
NPUSHW[ ]	/* 31 values pushed */
9 120 25 120 41 120 57 120 73 120 89 120 105 120 121 120 137 120 153 120 169 120 185 120 201 120 217 120 233 120 15
DELTAP1[ ]	/* DeltaExceptionP1 */
PUSHW[ ]	/* 1 value pushed */
100
SRP0[ ]	/* SetRefPoint0 */
PUSHW[ ]	/* 1 value pushed */
131
MDRP[11100]	/* MoveDirectRelPt */
SVTCA[0]	/* SetFreedomAndProjectionVectorToAxis */
PUSHW[ ]	/* 4 values pushed */
33 1 36 4
CALL[ ]	/* CallFunction */
PUSHW[ ]	/* 4 values pushed */
115 2 67 4
CALL[ ]	/* CallFunction */
IUP[0]	/* InterpolateUntPts */
IUP[1]	/* InterpolateUntPts */";
};
width = 597;
}
);
note = g;
unicode = 103;
}
{
glyphname = j;
layers = (
{
layerId = m01;
shapes = (
{
closed = 1;
nodes = (
(-75,-199,o),
(-46,-221,o),
(-12,-234,o),
(4,-234,qs),
(44,-234,o),
(117,-197,o),
(144,-157,qs),
(169,-117,o),
(187,12,o),
(187,101,qs),
(187,519,l),
(-15,504,l),
(-15,476,l),
(-5,476,l),
(28,476,l),
(49,476,ls),
(69,475,o),
(106,442,o),
(106,421,qs),
(106,36,ls),
(106,-27,o),
(90,-114,o),
(66,-170,o),
(38,-195,o),
(24,-195,qs),
(17,-195,o),
(-7,-188,o),
(-7,-176,qs),
(-7,-171,o),
(-2,-163,o),
(1,-158,qs),
(5,-153,o),
(12,-139,o),
(12,-131,qs),
(12,-110,o),
(-22,-91,o),
(-43,-91,qs),
(-68,-91,o),
(-94,-130,o),
(-94,-154,qs),
(-94,-170,o)
);
},
{
closed = 1;
nodes = (
(115,700,o),
(140,700,qs),
(167,700,o),
(202,738,o),
(202,763,qs),
(202,789,o),
(166,825,o),
(140,825,qs),
(115,825,o),
(79,789,o),
(79,763,qs),
(79,738,o)
);
}
);
width = 270;
}
);
note = j;
unicode = 106;
}
{
glyphname = m;
layers = (
{
layerId = m01;
shapes = (
{
closed = 1;
nodes = (
(30,0,l),
(284,0,l),
(284,28,l),
(252,28,ls),
(231,28,o),
(198,53,o),
(198,74,qs),
(198,300,ls),
(198,330,o),
(217,392,o),
(254,441,o),
(306,472,o),
(340,472,qs),
(365,472,o),
(406,452,o),
(434,418,o),
(449,373,o),
(449,349,qs),
(449,70,ls),
(449,56,o),
(422,28,o),
(407,28,qs),
(363,28,l),
(363,0,l),
(617,0,l),
(617,28,l),
(570,28,ls),
(560,28,o),
(537,51,o),
(537,63,qs),
(537,336,ls),
(537,362,o),
(559,410,o),
(596,449,o),
(645,472,o),
(671,472,qs),
(693,472,o),
(733,456,o),
(763,428,o),
(782,388,o),
(782,365,qs),
(782,70,ls),
(782,56,o),
(756,28,o),
(740,28,qs),
(697,28,l),
(697,0,l),
(948,0,l),
(948,28,l),
(909,28,ls),
(902,28,o),
(888,36,o),
(874,48,o),
(865,63,o),
(865,70,qs),
(865,386,ls),
(865,417,o),
(844,471,o),
(804,509,o),
(750,532,o),
(716,532,qs),
(685,532,o),
(632,511,o),
(587,477,o),
(547,431,o),
(530,406,q),
(526,413,o),
(513,435,o),
(510,442,qs),
(500,462,o),
(480,496,o),
(453,519,o),
(414,532,o),
(385,532,qs),
(330,532,o),
(237,464,o),
(201,415,q),
(180,527,l),
(45,504,l),
(45,478,l),
(49,478,ls),
(60,477,o),
(82,473,o),
(101,464,o),
(113,450,o),
(113,437,qs),
(113,67,ls),
(113,54,o),
(87,29,o),
(75,28,qs),
(30,28,l)
);
}
);
width = 996;
}
);
note = m;
unicode = 109;
}
{
glyphname = t;
layers = (
{
layerId = m01;
shapes = (
{
closed = 1;
nodes = (
(111,90,ls),
(111,65,o),
(133,28,o),
(170,3,o),
(218,-8,o),
(244,-8,qs),
(285,-8,o),
(345,24,o),
(384,79,o),
(403,147,o),
(403,185,q),
(377,185,l),
(374,163,o),
(364,111,o),
(341,66,o),
(303,37,o),
(274,37,qs),
(261,37,o),
(235,47,o),
(212,65,o),
(197,89,o),
(197,104,qs),
(197,477,l),
(364,477,l),
(364,520,l),
(196,520,l),
(196,733,l),
(169,733,l),
(163,691,o),
(149,621,o),
(117,565,o),
(64,521,o),
(20,505,q),
(20,477,l),
(111,477,l)
);
}
);
userData = {
assembly = "PUSHW[ ]	/* 4 values pushed */
8 5 34 4
CALL[ ]	/* CallFunction */
PUSHW[ ]	/* 1 value pushed */
8
SRP0[ ]	/* SetRefPoint0 */
PUSHW[ ]	/* 1 value pushed */
6
MDRP[11100]	/* MoveDirectRelPt */
PUSHW[ ]	/* 1 value pushed */
8
SRP0[ ]	/* SetRefPoint0 */
PUSHW[ ]	/* 1 value pushed */
11
MDRP[10000]	/* MoveDirectRelPt */
PUSHW[ ]	/* 1 value pushed */
11
MDAP[1]	/* MoveDirectAbsPt */
PUSHW[ ]	/* 1 value pushed */
7
SRP0[ ]	/* SetRefPoint0 */
PUSHW[ ]	/* 1 value pushed */
12
MDRP[10000]	/* MoveDirectRelPt */
PUSHW[ ]	/* 1 value pushed */
12
MDAP[1]	/* MoveDirectAbsPt */
IUP[0]	/* InterpolateUntPts */
IUP[1]	/* InterpolateUntPts */";
};
width = 429;
}
);
note = t;
unicode = 116;
}
{
glyphname = v;
layers = (
{
layerId = m01;
shapes = (
{
closed = 1;
nodes = (
(299,-17,l),
(487,418,ls),
(502,453,o),
(541,487,o),
(575,494,q),
(575,520,l),
(369,520,l),
(369,495,l),
(400,494,o),
(447,466,o),
(447,440,qs),
(447,431,o),
(444,422,qs),
(311,108,l),
(165,434,ls),
(160,446,o),
(160,454,qs),
(160,467,o),
(177,484,o),
(201,493,o),
(228,495,o),
(240,495,q),
(240,520,l),
(-5,520,l),
(-5,495,l),
(16,493,o),
(53,477,o),
(63,455,qs),
(277,-17,l)
);
}
);
width = 599;
}
);
note = v;
unicode = 118;
}
{
glyphname = or_i;
layers = (
{
background = {
shapes = (
{
closed = 1;
nodes = (
(744,281,qs),
(744,397,o),
(697,491,qs),
(669,547,o),
(578,638,o),
(519,664,qs),
(450,694,o),
(375,694,qs),
(353,694,o),
(330,691,qs),
(235,680,o),
(159,625,qs),
(89,573,o),
(51,495,qs),
(18,424,o),
(18,347,qs),
(18,340,o),
(18,334,qs),
(21,235,o),
(92,205,q),
(61,168,o),
(61,71,o),
(96,34,qs),
(140,-12,o),
(211,-12,qs),
(271,-12,o),
(313,24,q),
(355,-10,o),
(414,-10,qs),
(422,-10,o),
(430,-10,qs),
(495,-4,o),
(534,42,qs),
(564,77,o),
(564,121,qs),
(564,178,o),
(521,217,qs),
(478,255,o),
(353,255,o),
(310,219,q),
(269,255,o),
(207,256,q),
(207,256,l),
(207,257,l),
(202,256,l),
(193,256,o),
(153,252,o),
(145,252,o),
(140,254,o),
(135,259,qs),
(110,283,o),
(110,347,qs),
(110,416,o),
(171,545,o),
(229,588,qs),
(296,636,o),
(375,636,qs),
(421,636,o),
(510,597,o),
(585,523,o),
(609,474,qs),
(652,388,o),
(652,281,qs),
(652,134,o),
(580,9,qs),
(573,-3,l),
(582,-14,ls),
(676,-133,o),
(830,-171,qs),
(849,-176,l),
(864,-118,l),
(749,-89,o),
(673,1,q),
(744,131,o)
);
},
{
closed = 1;
nodes = (
(153,154,o),
(174,178,qs),
(190,196,o),
(207,198,q),
(225,197,o),
(242,179,qs),
(265,154,o),
(265,82,o),
(240,59,qs),
(224,45,o),
(211,45,qs),
(192,45,o),
(175,63,qs),
(153,87,o)
);
},
{
closed = 1;
nodes = (
(385,60,qs),
(358,83,o),
(358,125,qs),
(358,155,o),
(395,198,o),
(415,198,qs),
(430,198,o),
(445,184,qs),
(472,160,o),
(472,121,qs),
(472,91,o),
(434,47,o),
(414,47,qs),
(400,47,o)
);
}
);
};
backgroundImage = {
imagePath = "../../../../i.png";
pos = (-20,0);
};
layerId = m01;
shapes = (
{
closed = 1;
nodes = (
(389,51,o),
(359,82,o),
(359,120,cs),
(359,158,o),
(386,188,o),
(427,188,cs),
(470,188,o),
(503,158,o),
(503,120,cs),
(503,82,o),
(473,51,o),
(431,51,cs)
);
},
{
closed = 1;
nodes = (
(195,51,o),
(162,82,o),
(162,120,cs),
(162,124,l),
(164,136,ls),
(171,165,o),
(201,188,o),
(238,188,cs),
(279,188,o),
(307,158,o),
(307,120,cs),
(307,82,o),
(279,51,o),
(238,51,cs)
);
},
{
closed = 1;
nodes = (
(271,0,o),
(309,15,o),
(333,40,c),
(358,16,o),
(391,2,o),
(430,0,cs),
(503,-3,o),
(558,52,o),
(558,119,cs),
(558,194,o),
(501,246,o),
(427,246,cs),
(390,246,o),
(355,230,o),
(331,207,c),
(307,229,o),
(274,244,o),
(235,246,cs),
(161,246,o),
(104,194,o),
(104,119,cs),
(104,52,o),
(159,-3,o),
(232,0,cs)
);
},
{
closed = 1;
nodes = (
(133,303,o),
(118,340,o),
(123,427,cs),
(129,536,o),
(221,604,o),
(377,604,cs),
(551,604,o),
(660,494,o),
(660,320,cs),
(660,201,o),
(642,150,o),
(610,59,c),
(597,28,o),
(597,5,o),
(611,-1,cs),
(834,-104,l),
(863,-61,l),
(788,-19,l),
(658,39,l),
(664,30,l),
(701,98,o),
(731,239,o),
(730,320,cs),
(728,514,o),
(573,666,o),
(377,666,cs),
(194,666,o),
(50,571,o),
(50,427,cs),
(50,336,o),
(59,296,o),
(92,247,cs),
(124,201,o),
(180,188,o),
(219,188,cs),
(247,188,l),
(247,241,l),
(219,241,ls),
(196,241,o),
(172,247,o),
(150,279,cs)
);
}
);
width = 780;
}
);
note = or_i;
unicode = 2823;
}
{
color = 5;
glyphname = or_e;
layers = (
{
background = {
shapes = (
{
closed = 1;
nodes = (
(337,463,q),
(362,504,o),
(396,537,qs),
(464,604,o),
(555,628,q),
(555,59,l),
(45,403,l),
(5,345,l),
(577,-40,l),
(597,-40,l),
(601,-40,l),
(647,-40,l),
(647,699,l),
(594,694,ls),
(560,691,o),
(528,683,qs),
(406,654,o),
(233,486,o),
(203,373,qs),
(195,341,l),
(248,339,o),
(251,339,qs),
(300,339,o),
(329,370,qs),
(350,392,o),
(350,421,qs),
(350,444,o)
);
}
);
};
backgroundImage = {
imagePath = "../../../../e.png";
pos = (-49,0);
};
layerId = m01;
shapes = (
{
closed = 1;
nodes = (
(37,337,o),
(38,337,o),
(40,336,cs),
(566,15,l),
(614,72,l),
(614,598,l),
(547,642,l),
(284,393,l),
(271,378,o),
(259,364,o),
(254,335,cs),
(249,300,l),
(318,291,l),
(324,325,ls),
(327,344,o),
(330,348,o),
(340,359,c),
(582,589,l),
(576,589,o),
(544,602,o),
(544,598,cs),
(544,102,ls),
(544,58,o),
(532,69,o),
(567,85,c),
(79,383,l),
(30,393,l),
(2,393,l),
(2,337,l),
(30,337,ls)
);
}
);
width = 664;
}
);
note = or_e;
unicode = 2831;
}
{
glyphname = or_ai;
layers = (
{
attr = {
axisRules = (
);
};
backgroundImage = {
imagePath = "../../../../ai.png";
};
layerId = m01;
shapes = (
{
ref = or_e;
},
{
closed = 1;
nodes = (
(864,510,ls),
(864,645,o),
(780,766,o),
(644,815,cs),
(522,859,o),
(400,827,o),
(296,827,cs),
(244,827,o),
(211,844,o),
(172,885,cs),
(150,908,l),
(100,870,l),
(122,847,ls),
(167,800,o),
(220,771,o),
(296,771,cs),
(420,771,o),
(514,801,o),
(620,763,cs),
(720,727,o),
(794,627,o),
(794,510,cs),
(794,17,l),
(864,17,l)
);
},
{
closed = 1;
nodes = (
(764,189,o),
(755,184,o),
(742,184,cs),
(717,184,o),
(696,193,o),
(681,217,cs),
(663,246,l),
(603,219,l),
(619,189,ls),
(642,146,o),
(698,128,o),
(742,128,cs),
(777,128,o),
(807,143,o),
(832,165,cs),
(855,186,l),
(808,228,l),
(784,207,ls)
);
}
);
width = 919;
}
);
note = or_ai;
unicode = 2832;
}
{
glyphname = or_o;
layers = (
{
background = {
shapes = (
{
closed = 1;
nodes = (
(398,406,qs),
(440,421,o),
(465,454,qs),
(486,484,o),
(486,521,qs),
(486,522,o),
(486,523,q),
(400,522,l),
(400,522,o),
(400,521,qs),
(400,496,o),
(374,459,o),
(357,453,qs),
(352,452,o),
(342,452,o),
(336,454,q),
(336,454,o),
(336,454,q),
(336,478,o),
(344,500,qs),
(354,528,o),
(397,571,o),
(453,597,o),
(486,597,qs),
(528,597,o),
(560,576,qs),
(581,563,o),
(604,522,o),
(604,471,o),
(591,443,qs),
(572,406,o),
(539,382,qs),
(515,364,o),
(486,358,q),
(365,323,l),
(366,306,l),
(366,304,l),
(369,265,l),
(464,291,ls),
(479,295,o),
(495,294,qs),
(539,289,o),
(600,216,o),
(600,125,o),
(571,90,qs),
(551,63,o),
(521,47,qs),
(482,26,o),
(434,26,qs),
(420,26,o),
(405,28,qs),
(321,39,o),
(253,100,qs),
(178,169,o),
(149,278,qs),
(135,332,o),
(135,440,o),
(147,490,qs),
(162,560,o),
(233,682,o),
(285,722,qs),
(328,756,o),
(536,850,o),
(625,898,q),
(595,954,l),
(568,939,ls),
(483,892,o),
(383,847,qs),
(267,795,o),
(217,755,qs),
(97,660,o),
(61,498,qs),
(50,443,o),
(50,327,o),
(64,270,qs),
(95,148,o),
(269,-10,o),
(388,-25,qs),
(411,-28,o),
(434,-28,qs),
(514,-28,o),
(577,7,qs),
(620,29,o),
(647,64,qs),
(686,113,o),
(686,170,qs),
(686,229,o),
(647,276,qs),
(619,311,o),
(576,329,q),
(590,337,o),
(604,347,qs),
(649,380,o),
(673,429,qs),
(690,463,o),
(690,497,qs),
(690,530,o),
(656,591,o),
(622,613,qs),
(565,651,o),
(486,651,qs),
(427,651,o),
(374,627,qs),
(333,610,o),
(273,549,o),
(260,512,qs),
(250,484,o),
(250,454,qs),
(250,447,o),
(252,430,q),
(263,423,ls),
(299,399,o),
(348,399,qs),
(374,399,o)
);
}
);
};
backgroundImage = {
imagePath = "../../../../o.png";
pos = (-29,0);
scale = (1.979,1.979);
};
layerId = m01;
shapes = (
{
closed = 1;
nodes = (
(620,817,o),
(555,795,o),
(523,787,cs),
(441,767,o),
(361,761,o),
(257,701,cs),
(140,633,o),
(70,517,o),
(70,341,cs),
(70,128,o),
(224,1,o),
(433,1,cs),
(551,1,o),
(638,57,o),
(638,177,cs),
(638,271,o),
(564,307,o),
(517,323,cs),
(490,333,l),
(467,280,l),
(495,271,ls),
(530,259,o),
(568,237,o),
(568,177,cs),
(568,91,o),
(519,57,o),
(433,57,cs),
(262,57,o),
(140,158,o),
(140,341,cs),
(140,514,o),
(214,607,o),
(293,653,cs),
(387,707,o),
(449,711,o),
(539,733,cs),
(573,741,o),
(687,765,o),
(707,816,cs),
(719,847,l),
(671,864,l),
(641,836,ls)
);
},
{
closed = 1;
nodes = (
(501,274,l),
(552,299,o),
(662,361,o),
(662,473,cs),
(662,557,o),
(604,619,o),
(489,630,cs),
(377,641,o),
(282,585,o),
(270,513,cs),
(264,473,o),
(272,433,o),
(324,398,cs),
(348,381,o),
(402,376,o),
(431,388,cs),
(457,400,l),
(430,451,l),
(403,440,ls),
(396,437,o),
(377,435,o),
(364,444,cs),
(342,459,o),
(336,479,o),
(340,505,cs),
(347,549,o),
(408,581,o),
(483,574,cs),
(558,567,o),
(592,531,o),
(592,473,cs),
(592,392,o),
(512,344,o),
(471,324,c),
(300,270,l),
(316,229,l)
);
}
);
width = 734;
}
);
note = or_o;
unicode = 2835;
}
{
glyphname = or_au;
layers = (
{
background = {
shapes = (
{
closed = 1;
nodes = (
(770,186,qs),
(745,201,o),
(735,232,qs),
(731,243,ls),
(727,260,o),
(719,277,qs),
(702,312,o),
(669,336,qs),
(648,352,o),
(623,361,q),
(673,389,o),
(698,438,qs),
(716,472,o),
(716,508,qs),
(716,542,o),
(681,605,o),
(646,628,qs),
(588,666,o),
(508,666,qs),
(446,666,o),
(392,642,qs),
(350,623,o),
(289,562,o),
(276,524,qs),
(266,495,o),
(266,466,qs),
(266,458,o),
(267,440,q),
(278,433,ls),
(316,408,o),
(365,408,qs),
(392,408,o),
(417,416,qs),
(461,431,o),
(485,465,qs),
(507,496,o),
(507,533,qs),
(507,534,o),
(507,535,q),
(419,534,l),
(419,534,o),
(419,533,qs),
(419,508,o),
(392,470,o),
(375,464,qs),
(370,463,o),
(360,463,o),
(354,465,q),
(354,465,o),
(354,466,qs),
(354,489,o),
(361,512,qs),
(372,541,o),
(416,585,o),
(474,611,o),
(508,611,qs),
(550,611,o),
(582,590,qs),
(604,576,o),
(628,533,o),
(628,481,o),
(614,455,qs),
(592,413,o),
(550,396,q),
(428,337,l),
(437,319,l),
(439,315,l),
(457,278,l),
(541,316,l),
(572,324,o),
(603,300,qs),
(623,285,o),
(648,234,o),
(648,175,o),
(638,150,qs),
(617,98,o),
(567,68,qs),
(527,45,o),
(477,45,qs),
(453,45,o),
(429,50,qs),
(353,69,o),
(290,133,qs),
(231,193,o),
(169,362,o),
(169,453,qs),
(169,626,o),
(270,770,q),
(285,769,o),
(301,769,qs),
(319,769,o),
(369,773,o),
(483,790,o),
(527,793,o),
(541,793,qs),
(605,793,o),
(703,752,o),
(781,670,o),
(806,614,qs),
(837,540,o),
(838,458,qs),
(838,200,l),
(823,183,o),
(804,179,qs),
(800,178,o),
(796,178,qs),
(783,178,o)
);
},
{
closed = 1;
nodes = (
(926,-28,l),
(926,459,ls),
(925,548,o),
(890,628,qs),
(863,692,o),
(768,791,o),
(631,848,o),
(541,848,qs),
(522,848,o),
(468,844,o),
(353,827,o),
(313,824,o),
(301,824,qs),
(262,824,o),
(210,850,o),
(193,877,qs),
(178,900,l),
(111,857,l),
(136,817,o),
(181,794,qs),
(184,792,o),
(188,790,q),
(85,643,o),
(81,465,qs),
(81,459,o),
(81,453,qs),
(81,355,o),
(148,172,o),
(215,104,qs),
(294,24,o),
(398,-1,qs),
(437,-10,o),
(477,-10,qs),
(562,-10,o),
(627,28,qs),
(697,69,o),
(723,137,q),
(724,138,o),
(724,139,q),
(757,123,o),
(796,123,qs),
(814,123,o),
(830,127,qs),
(834,128,o),
(838,128,q),
(838,-28,l)
);
}
);
};
layerId = m01;
shapes = (
{
closed = 1;
nodes = (
(121,685,o),
(55,584,o),
(82,338,cs),
(98,191,o),
(233,1,o),
(445,1,cs),
(580,1,o),
(650,81,o),
(650,177,cs),
(650,271,o),
(576,307,o),
(529,323,cs),
(502,333,l),
(479,280,l),
(507,271,ls),
(542,259,o),
(580,237,o),
(580,177,cs),
(580,107,o),
(536,57,o),
(445,57,cs),
(281,57,o),
(166,215,o),
(152,344,cs),
(127,572,o),
(183,659,o),
(253,754,cs),
(273,781,l),
(216,814,l),
(197,788,ls)
);
},
{
closed = 1;
nodes = (
(513,274,l),
(564,299,o),
(674,361,o),
(674,473,cs),
(674,557,o),
(616,619,o),
(501,630,cs),
(389,641,o),
(294,585,o),
(282,513,cs),
(276,473,o),
(284,433,o),
(336,398,cs),
(360,381,o),
(414,376,o),
(443,388,cs),
(469,400,l),
(442,451,l),
(415,440,ls),
(408,437,o),
(389,435,o),
(376,444,cs),
(354,459,o),
(348,479,o),
(352,505,cs),
(359,549,o),
(420,581,o),
(495,574,cs),
(570,567,o),
(604,531,o),
(604,473,cs),
(604,392,o),
(524,344,o),
(483,324,c),
(312,270,l),
(333,217,l)
);
},
{
closed = 1;
nodes = (
(834,510,ls),
(834,645,o),
(750,766,o),
(614,815,cs),
(492,859,o),
(370,827,o),
(266,827,cs),
(214,827,o),
(181,844,o),
(142,885,cs),
(120,908,l),
(70,870,l),
(92,847,ls),
(137,800,o),
(190,771,o),
(266,771,cs),
(390,771,o),
(484,801,o),
(590,763,cs),
(690,727,o),
(764,627,o),
(764,510,cs),
(764,17,l),
(834,17,l)
);
},
{
closed = 1;
nodes = (
(734,189,o),
(725,184,o),
(712,184,cs),
(687,184,o),
(666,193,o),
(651,217,cs),
(633,246,l),
(573,219,l),
(589,189,ls),
(612,146,o),
(668,128,o),
(712,128,cs),
(747,128,o),
(777,143,o),
(802,165,cs),
(825,186,l),
(778,228,l),
(754,207,ls)
);
}
);
width = 904;
}
);
note = or_au;
unicode = 2836;
}
{
glyphname = or_ka;
layers = (
{
backgroundImage = {
imagePath = "../../../../ka.png";
pos = (8,0);
};
hints = (
{
name = _corner.left;
origin = (0,7);
type = Corner;
}
);
layerId = m01;
shapes = (
{
closed = 1;
nodes = (
(670,222,o),
(680,254,o),
(684,340,cs),
(684,526,o),
(536,672,o),
(347,672,cs),
(192,672,o),
(70,551,o),
(70,397,cs),
(70,351,o),
(105,298,o),
(150,276,cs),
(197,256,o),
(233,257,o),
(266,257,cs),
(294,257,l),
(294,304,l),
(266,304,ls),
(233,304,o),
(214,304,o),
(183,316,cs),
(157,328,o),
(140,359,o),
(140,397,cs),
(140,532,o),
(220,616,o),
(347,616,cs),
(511,616,o),
(614,510,o),
(614,341,cs),
(609,245,o),
(607,201,o),
(608,176,c),
(671,177,l)
);
},
{
closed = 1;
nodes = (
(543,220,ls),
(543,262,o),
(504,296,o),
(448,296,cs),
(403,296,o),
(358,262,o),
(358,208,cs),
(358,-1,l),
(418,-1,l),
(418,208,ls),
(418,233,o),
(433,248,o),
(448,248,cs),
(470,248,o),
(483,236,o),
(483,220,cs),
(483,-1,l),
(543,-1,l)
);
},
{
closed = 1;
nodes = (
(352,69,o),
(413,122,o),
(413,187,cs),
(413,253,o),
(352,305,o),
(273,305,cs),
(192,305,o),
(123,254,o),
(123,187,cs),
(123,121,o),
(192,69,o),
(273,69,cs)
);
},
{
closed = 1;
nodes = (
(229,127,o),
(196,153,o),
(196,187,cs),
(196,221,o),
(229,247,o),
(274,247,cs),
(311,247,o),
(340,221,o),
(340,187,cs),
(340,153,o),
(311,127,o),
(274,127,cs)
);
}
);
width = 754;
}
);
note = or_ka;
unicode = 2837;
}
{
glyphname = or_kha;
layers = (
{
background = {
shapes = (
{
closed = 1;
nodes = (
(558,512,o),
(525,466,o),
(421,466,cs),
(374,466,o),
(345,502,o),
(345,510,cs),
(345,515,o),
(392,584,o),
(427,604,cs),
(452,619,l),
(418,666,l),
(393,652,ls),
(334,618,o),
(277,536,o),
(277,510,cs),
(277,484,o),
(330,412,o),
(421,412,cs),
(562,412,o),
(612,480,o),
(640,518,cs),
(659,543,l),
(605,576,l),
(586,550,ls)
);
}
);
};
backgroundImage = {
imagePath = "../../../../kha1.png";
};
layerId = m01;
shapes = (
{
closed = 1;
nodes = (
(441,651,l),
(407,665,o),
(373,671,o),
(333,671,cs),
(186,671,o),
(70,565,o),
(70,429,cs),
(70,331,o),
(123,240,o),
(196,222,c),
(169,192,o),
(164,157,o),
(164,141,cs),
(164,62,o),
(235,0,o),
(325,0,cs),
(429,0,o),
(495,54,o),
(495,141,cs),
(495,223,o),
(425,281,o),
(325,281,cs),
(282,281,o),
(280,270,o),
(235,271,cs),
(182,272,o),
(140,342,o),
(140,429,cs),
(140,533,o),
(225,609,o),
(333,609,cs),
(362,609,o),
(375,609,o),
(400,599,c)
);
},
{
closed = 1;
nodes = (
(233,194,o),
(271,232,o),
(325,232,cs),
(387,232,o),
(430,194,o),
(430,141,cs),
(430,87,o),
(387,49,o),
(325,49,cs),
(271,49,o),
(233,87,o),
(233,141,cs)
);
},
{
pos = (510,0);
ref = or_aakaar;
},
{
closed = 1;
nodes = (
(618,568,l),
(605,576,l),
(586,550,ls),
(558,512,o),
(525,466,o),
(421,466,cs),
(374,466,o),
(351,501,o),
(351,509,cs),
(350,522,o),
(397,575,o),
(441,651,c),
(393,659,l),
(340,621,o),
(281,538,o),
(284,503,cs),
(284,477,o),
(330,412,o),
(421,412,cs),
(510,412,o),
(559,428,o),
(618,493,c)
);
}
);
width = 697;
}
);
note = or_kha;
unicode = 2838;
}
{
glyphname = or_ga;
layers = (
{
background = {
shapes = (
{
pos = (485,0);
ref = or_aakaar;
}
);
};
backgroundImage = {
imagePath = "../../../../ga.png";
pos = (25,0);
};
layerId = m01;
shapes = (
{
closed = 1;
nodes = (
(576,547,l),
(561,547,l),
(570,475,l),
(575,17,l),
(634,17,l),
(634,646,l),
(581,646,l)
);
},
{
closed = 1;
nodes = (
(238,194,o),
(276,232,o),
(330,232,cs),
(392,232,o),
(435,194,o),
(435,141,cs),
(435,87,o),
(392,49,o),
(330,49,cs),
(276,49,o),
(238,87,o),
(238,141,cs)
);
},
{
closed = 1;
nodes = (
(255,258,ls),
(190,222,o),
(169,183,o),
(169,141,cs),
(169,62,o),
(240,0,o),
(330,0,cs),
(434,0,o),
(500,54,o),
(500,141,cs),
(500,223,o),
(430,281,o),
(330,281,cs),
(318,281,o),
(305,280,o),
(294,280,c)
);
},
{
closed = 1;
nodes = (
(549,609,o),
(452,672,o),
(347,672,cs),
(192,672,o),
(70,564,o),
(70,427,cs),
(70,365,o),
(107,293,o),
(154,265,cs),
(182,248,o),
(232,233,o),
(267,230,c),
(291,228,l),
(317,280,l),
(255,280,o),
(233,285,o),
(202,306,cs),
(161,334,o),
(140,372,o),
(140,427,cs),
(140,549,o),
(215,609,o),
(347,609,cs),
(453,609,o),
(509,544,o),
(542,489,cs),
(576,432,l),
(600,489,l)
);
}
);
width = 689;
}
);
note = or_ga;
unicode = 2839;
}
{
glyphname = or_gha;
layers = (
{
background = {
shapes = (
{
closed = 1;
nodes = (
(624,479,l),
(555,581,o),
(466,665,o),
(334,665,cs),
(173,665,o),
(50,586,o),
(50,428,cs),
(50,331,o),
(100,271,o),
(194,241,c),
(223,291,l),
(153,311,o),
(120,353,o),
(120,428,cs),
(120,552,o),
(206,609,o),
(334,609,cs),
(442,609,o),
(517,528,o),
(588,412,cs),
(605,384,l),
(624,393,l)
);
}
);
};
layerId = m01;
shapes = (
{
closed = 1;
nodes = (
(366,236,l),
(355,173,o),
(344,131,o),
(308,95,cs),
(283,70,o),
(224,48,o),
(189,87,cs),
(171,107,o),
(167,155,o),
(186,191,cs),
(207,231,o),
(265,273,o),
(315,299,c),
(288,351,l),
(225,320,o),
(149,266,o),
(124,217,cs),
(95,161,o),
(93,99,o),
(137,49,cs),
(194,-14,o),
(315,12,o),
(358,55,cs),
(414,111,o),
(423,164,o),
(435,230,c)
);
},
{
closed = 1;
nodes = (
(624,217,l),
(603,226,l),
(587,196,ls),
(535,100,o),
(522,58,o),
(466,57,cs),
(433,56,o),
(414,84,o),
(405,139,cs),
(399,173,l),
(372,170,l),
(341,103,l),
(359,41,o),
(401,0,o),
(468,1,cs),
(553,2,o),
(588,55,o),
(624,122,c)
);
},
{
closed = 1;
nodes = (
(588,17,l),
(653,17,l),
(653,646,l),
(590,646,l)
);
},
{
closed = 1;
nodes = (
(283,303,l),
(268,303,ls),
(177,303,o),
(132,356,o),
(132,424,cs),
(132,511,o),
(215,617,o),
(347,617,cs),
(499,617,o),
(602,500,o),
(618,368,c),
(645,501,l),
(590,600,o),
(486,673,o),
(347,673,cs),
(169,673,o),
(62,535,o),
(62,424,cs),
(62,340,o),
(119,265,o),
(228,250,c)
);
}
);
width = 708;
}
);
metricLeft = "=or_ga";
metricRight = "=or_ga";
note = or_gha;
unicode = 2840;
}
{
glyphname = or_ca;
layers = (
{
backgroundImage = {
imagePath = "../../../../cha.png";
scale = (1.106,1);
};
layerId = m01;
shapes = (
{
closed = 1;
nodes = (
(632,191,l),
(645,232,o),
(663,266,o),
(665,326,cs),
(671,520,o),
(552,671,o),
(333,671,cs),
(186,671,o),
(70,565,o),
(70,429,cs),
(70,380,o),
(84,327,o),
(101,292,cs),
(116,261,o),
(155,237,o),
(207,222,c),
(189,197,o),
(181,157,o),
(181,141,cs),
(181,62,o),
(252,0,o),
(342,0,cs),
(446,0,o),
(512,54,o),
(512,141,cs),
(512,223,o),
(442,281,o),
(342,281,cs),
(282,281,o),
(228,270,o),
(183,295,cs),
(163,306,o),
(140,375,o),
(140,429,cs),
(140,533,o),
(225,609,o),
(333,609,cs),
(514,609,o),
(602,495,o),
(602,337,cs),
(602,297,o),
(600,270,o),
(589,201,c)
);
},
{
closed = 1;
nodes = (
(250,194,o),
(288,232,o),
(342,232,cs),
(404,232,o),
(447,194,o),
(447,141,cs),
(447,87,o),
(404,49,o),
(342,49,cs),
(288,49,o),
(250,87,o),
(250,141,cs)
);
}
);
width = 735;
}
);
note = or_ca;
unicode = 2842;
}
{
glyphname = or_cha;
layers = (
{
backgroundImage = {
imagePath = "../../../../cha.png";
pos = (1,18);
};
layerId = m01;
shapes = (
{
closed = 1;
nodes = (
(564,184,o),
(603,187,o),
(604,193,c),
(603,224,o),
(606,285,o),
(610,332,cs),
(625,522,o),
(494,671,o),
(313,671,cs),
(166,671,o),
(50,565,o),
(50,429,cs),
(50,330,o),
(105,239,o),
(176,222,c),
(158,202,o),
(144,166,o),
(144,141,cs),
(144,94,o),
(179,42,o),
(223,22,c),
(210,12,o),
(195,-9,o),
(189,-25,c),
(140,8,o),
(79,39,o),
(51,45,c),
(35,12,l),
(50,4,o),
(115,-42,o),
(182,-94,c),
(191,-137,o),
(244,-171,o),
(302,-171,cs),
(332,-171,o),
(375,-153,o),
(397,-131,c),
(419,-152,o),
(460,-169,o),
(490,-171,cs),
(558,-174,o),
(612,-124,o),
(612,-58,cs),
(612,5,o),
(557,55,o),
(487,55,cs),
(467,55,o),
(438,45,o),
(423,32,c),
(413,43,l),
(448,59,o),
(475,102,o),
(475,141,cs),
(475,219,o),
(430,285,o),
(305,285,cs),
(272,285,o),
(235,270,o),
(215,271,cs),
(162,274,o),
(120,342,o),
(120,429,cs),
(120,533,o),
(205,615,o),
(313,615,cs),
(448,615,o),
(552,490,o),
(549,332,cs),
(549,276,o),
(554,213,o),
(561,189,c)
);
},
{
closed = 1;
nodes = (
(218,192,o),
(258,232,o),
(310,232,cs),
(363,232,o),
(405,192,o),
(405,141,cs),
(405,89,o),
(363,49,o),
(310,49,cs),
(258,49,o),
(218,89,o),
(218,141,cs)
);
},
{
closed = 1;
nodes = (
(447,-120,o),
(419,-92,o),
(419,-56,cs),
(419,-22,o),
(444,6,o),
(483,6,cs),
(521,6,o),
(553,-22,o),
(553,-56,cs),
(553,-92,o),
(524,-120,o),
(486,-120,cs)
);
},
{
closed = 1;
nodes = (
(269,-120,o),
(238,-92,o),
(238,-56,cs),
(238,-54,l),
(240,-42,ls),
(247,-15,o),
(275,6,o),
(308,6,cs),
(346,6,o),
(372,-22,o),
(372,-56,cs),
(372,-92,o),
(346,-120,o),
(308,-120,cs)
);
}
);
width = 661;
}
);
note = or_cha;
unicode = 2843;
}
{
glyphname = or_ja;
layers = (
{
backgroundImage = {
imagePath = "../../../../ja1.png";
pos = (18,0);
};
layerId = m01;
shapes = (
{
closed = 1;
nodes = (
(661,340,l),
(661,558,o),
(523,667,o),
(347,667,cs),
(192,667,o),
(70,561,o),
(70,427,cs),
(70,355,o),
(131,287,o),
(208,273,cs),
(236,269,l),
(323,314,l),
(261,318,o),
(238,316,o),
(218,318,cs),
(170,323,o),
(140,365,o),
(140,427,cs),
(140,536,o),
(220,604,o),
(347,604,cs),
(492,604,o),
(586,503,o),
(591,341,cs),
(597,171,l),
(651,176,l),
(651,211,l)
);
},
{
closed = 1;
nodes = (
(402,112,l),
(363,116,o),
(337,142,o),
(337,188,cs),
(337,249,o),
(396,269,o),
(456,273,c),
(456,16,l),
(522,16,l),
(522,326,l),
(442,333,o),
(271,319,o),
(271,188,cs),
(271,139,o),
(292,102,o),
(322,81,c),
(310,73,o),
(297,68,o),
(279,68,cs),
(229,68,o),
(177,95,o),
(177,168,cs),
(177,203,o),
(197,254,o),
(265,264,cs),
(302,270,o),
(330,264,o),
(374,255,c),
(396,306,l),
(328,322,o),
(284,320,o),
(255,316,cs),
(138,298,o),
(111,215,o),
(111,168,cs),
(111,59,o),
(203,16,o),
(279,16,cs),
(337,16,o),
(376,44,o),
(402,72,c)
);
}
);
width = 731;
}
);
note = or_ja;
unicode = 2844;
}
{
glyphname = or_tta;
layers = (
{
background = {
shapes = (
{
closed = 1;
nodes = (
(546,504,l),
(546,533,l),
(546,536,l),
(546,547,l),
(534,555,l),
(209,778,l),
(209,779,l),
(208,779,l),
(124,832,l),
(59,791,l),
(142,739,l),
(398,563,l),
(161,564,l),
(114,565,l),
(114,536,l),
(114,533,l),
(114,524,l),
(123,517,l),
(312,351,l),
(294,348,o),
(278,342,qs),
(215,321,o),
(176,272,qs),
(139,226,o),
(134,168,qs),
(133,159,o),
(133,149,qs),
(133,102,o),
(154,59,qs),
(195,-20,o),
(284,-48,qs),
(320,-59,o),
(359,-59,qs),
(422,-59,o),
(475,-31,qs),
(535,1,o),
(562,59,qs),
(580,96,o),
(580,138,qs),
(580,146,o),
(579,155,qs),
(574,206,o),
(543,247,qs),
(541,249,l),
(539,251,l),
(248,506,l),
(500,505,l)
);
},
{
closed = 1;
nodes = (
(487,151,qs),
(488,145,o),
(488,138,qs),
(488,105,o),
(474,75,qs),
(454,34,o),
(415,12,qs),
(388,-2,o),
(359,-2,qs),
(342,-2,o),
(326,3,qs),
(302,11,o),
(256,50,o),
(242,77,qs),
(225,111,o),
(225,149,qs),
(225,157,o),
(226,165,qs),
(230,211,o),
(259,247,qs),
(285,279,o),
(321,292,qs),
(338,297,o),
(356,297,qs),
(366,297,o),
(375,296,q),
(461,220,l),
(483,190,o)
);
}
);
};
layerId = m01;
shapes = (
{
closed = 1;
nodes = (
(438,-6,o),
(516,72,o),
(516,166,cs),
(516,210,o),
(499,240,o),
(471,270,c),
(399,333,l),
(338,336,l),
(237,336,o),
(158,258,o),
(158,166,cs),
(158,72,o),
(237,-6,o),
(338,-6,cs)
);
},
{
closed = 1;
nodes = (
(284,58,o),
(238,104,o),
(238,165,cs),
(238,226,o),
(284,272,o),
(338,272,cs),
(391,272,o),
(437,226,o),
(437,165,cs),
(437,104,o),
(391,58,o),
(338,58,cs)
);
},
{
closed = 1;
nodes = (
(521,529,l),
(113,837,l),
(70,792,l),
(389,552,l),
(104,552,l),
(104,521,l),
(320,314,l),
(476,264,l),
(416,319,l),
(227,496,l),
(521,496,l)
);
}
);
width = 591;
}
);
note = or_tta;
unicode = 2847;
}
{
glyphname = or_dda;
layers = (
{
backgroundImage = {
imagePath = "../../../../dda.png";
pos = (28,0);
};
layerId = m01;
shapes = (
{
closed = 1;
nodes = (
(682,264,o),
(690,286,o),
(689,340,cs),
(686,496,o),
(623,672,o),
(353,672,cs),
(168,672,o),
(50,580,o),
(50,427,cs),
(50,352,o),
(109,321,o),
(138,308,cs),
(189,288,o),
(293,300,o),
(329,300,c),
(336,336,l),
(280,344,l),
(244,344,o),
(205,345,o),
(169,358,cs),
(150,366,o),
(120,382,o),
(120,427,cs),
(120,548,o),
(204,616,o),
(353,616,cs),
(567,616,o),
(619,484,o),
(619,341,c),
(621,284,o),
(617,227,o),
(613,170,c),
(665,170,l)
);
},
{
closed = 1;
nodes = (
(535,122,l),
(508,151,o),
(473,184,o),
(426,217,c),
(530,294,l),
(499,333,l),
(350,234,l),
(350,196,l),
(396,167,o),
(428,137,o),
(459,106,c),
(435,73,o),
(389,55,o),
(336,55,cs),
(283,55,o),
(228,95,o),
(194,163,c),
(218,215,o),
(244,260,o),
(305,314,c),
(280,344,l),
(255,325,ls),
(203,286,o),
(138,221,o),
(121,163,c),
(139,69,o),
(233,-1,o),
(336,-1,cs),
(412,-1,o),
(496,40,o),
(535,98,c)
);
}
);
width = 739;
}
);
note = or_dda;
unicode = 2849;
}
{
glyphname = or_ddha;
layers = (
{
background = {
hints = (
{
name = _corner.left;
origin = (0,32);
type = Corner;
}
);
shapes = (
{
closed = 1;
nodes = (
(696,236,o),
(701,293,o),
(703,340,c),
(703,526,o),
(554,672,o),
(364,672,cs),
(202,672,o),
(70,564,o),
(70,427,cs),
(70,375,o),
(103,322,o),
(150,299,cs),
(198,279,o),
(179,291,o),
(259,288,c),
(294,331,l),
(266,331,ls),
(234,331,o),
(205,335,o),
(184,343,cs),
(156,352,o),
(140,383,o),
(140,427,cs),
(140,543,o),
(219,608,o),
(359,608,cs),
(500,608,o),
(616,522,o),
(630,341,cs),
(634,291,o),
(628,225,o),
(617,157,cs),
(594,28,l),
(648,17,l),
(691,211,ls)
);
}
);
};
layerId = m01;
shapes = (
{
closed = 1;
nodes = (
(263,54,o),
(186,111,o),
(186,191,cs),
(186,217,o),
(197,241,o),
(212,250,cs),
(243,266,o),
(274,284,o),
(304,296,c),
(294,331,l),
(242,300,o),
(254,315,o),
(186,287,cs),
(148,270,o),
(118,228,o),
(118,191,cs),
(118,84,o),
(213,0,o),
(344,0,cs),
(456,0,o),
(539,79,o),
(539,180,cs),
(539,239,o),
(505,274,o),
(460,280,cs),
(392,276,o),
(310,218,o),
(284,102,c),
(323,82,l),
(362,165,o),
(424,224,o),
(457,224,cs),
(473,224,o),
(484,201,o),
(484,175,cs),
(484,119,o),
(416,54,o),
(336,54,cs)
);
},
{
closed = 1;
nodes = (
(242,271,l),
(173,279,o),
(132,324,o),
(132,390,cs),
(132,529,o),
(215,616,o),
(347,616,cs),
(522,616,o),
(626,506,o),
(631,331,cs),
(633,263,o),
(607,81,o),
(587,36,c),
(645,17,l),
(669,65,o),
(701,260,o),
(699,331,cs),
(693,540,o),
(565,672,o),
(347,672,cs),
(172,672,o),
(62,563,o),
(62,390,cs),
(62,299,o),
(117,237,o),
(208,219,c)
);
}
);
width = 773;
}
);
note = or_ddha;
unicode = 2850;
}
{
glyphname = or_na;
layers = (
{
background = {
shapes = (
{
closed = 0;
nodes = (
(233,43,l),
(247,186,l),
(459,336,l),
(459,12,l)
);
},
{
closed = 0;
nodes = (
(315,268,l),
(123,318,l),
(132,553,l),
(388,636,l),
(591,442,l),
(581,268,l)
);
}
);
};
backgroundImage = {
imagePath = "../../../../na.png";
pos = (-1,0);
};
layerId = m01;
shapes = (
{
closed = 1;
nodes = (
(282,12,o),
(303,47,o),
(294,80,cs),
(284,114,o),
(249,135,o),
(215,126,cs),
(182,117,o),
(159,82,o),
(168,47,cs),
(177,14,o),
(215,-6,o),
(248,3,cs)
);
},
{
closed = 1;
nodes = (
(197,167,l),
(166,123,o),
(157,88,o),
(168,47,c),
(283,102,l),
(270,123,o),
(246,142,o),
(294,194,c)
);
},
{
closed = 1;
nodes = (
(279,252,l),
(197,199,o),
(161,123,o),
(167,85,c),
(188,57,l),
(192,89,l),
(261,119,l),
(256,121,o),
(262,134,o),
(268,152,cs),
(286,204,o),
(356,253,o),
(427,273,c),
(431,17,l),
(490,17,l),
(490,306,l),
(447,334,l),
(390,319,o),
(335,305,o),
(324,304,c),
(277,297,o),
(200,319,o),
(158,341,cs),
(137,354,o),
(120,390,o),
(120,425,c),
(119,529,o),
(213,611,o),
(345,611,cs),
(482,611,o),
(585,501,o),
(579,343,c),
(579,332,o),
(579,292,o),
(583,252,c),
(642,257,l),
(641,279,o),
(638,326,o),
(644,362,cs),
(648,391,o),
(643,443,o),
(632,481,cs),
(601,585,o),
(475,672,o),
(345,672,cs),
(175,672,o),
(51,562,o),
(51,429,c),
(46,379,o),
(77,318,o),
(120,291,cs),
(169,262,o),
(224,255,o),
(279,256,c)
);
}
);
width = 695;
}
);
note = or_na;
unicode = 2856;
}
{
glyphname = or_bha;
layers = (
{
hints = (
{
name = _corner.square;
origin = (0,10);
type = Corner;
},
{
name = _corner.tailBottom;
origin = (1,52);
type = Corner;
}
);
layerId = m01;
shapes = (
{
closed = 1;
nodes = (
(210,185,o),
(220,208,o),
(260,256,cs),
(267,262,l),
(282,266,l),
(285,199,o),
(324,163,o),
(387,163,cs),
(408,163,o),
(429,171,o),
(442,178,c),
(440,151,o),
(435,121,o),
(427,105,cs),
(404,57,o),
(365,50,o),
(311,54,cs),
(227,60,o),
(210,121,o),
(210,148,cs)
);
},
{
closed = 1;
nodes = (
(580,40,l),
(580,45,l),
(580,47,o),
(695,172,o),
(695,332,cs),
(698,545,o),
(571,671,o),
(361,671,cs),
(173,671,o),
(70,548,o),
(70,429,cs),
(70,350,o),
(112,283,o),
(189,264,c),
(153,219,o),
(142,189,o),
(142,148,cs),
(142,106,o),
(176,9,o),
(311,0,cs),
(371,-4,o),
(451,7,o),
(487,81,cs),
(508,125,o),
(512,201,o),
(510,220,cs),
(504,274,l),
(446,284,l),
(440,268,o),
(430,216,o),
(387,217,cs),
(355,218,o),
(346,260,o),
(346,275,c),
(348,313,l),
(303,338,l),
(231,312,l),
(172,313,o),
(140,364,o),
(140,429,cs),
(140,540,o),
(225,609,o),
(361,609,cs),
(526,609,o),
(628,502,o),
(625,332,cs),
(625,217,o),
(583,165,o),
(525,76,cs),
(504,45,o),
(511,9,o),
(536,-7,c),
(705,-106,l),
(739,-58,l)
);
}
);
width = 768;
}
);
note = or_bha;
unicode = 2861;
}
{
glyphname = or_la;
layers = (
{
layerId = m01;
shapes = (
{
closed = 1;
nodes = (
(660,201,o),
(642,150,o),
(610,59,cs),
(597,28,o),
(597,5,o),
(611,-1,cs),
(834,-104,l),
(863,-61,l),
(788,-19,l),
(658,39,l),
(664,30,l),
(701,98,o),
(731,239,o),
(730,320,cs),
(728,514,o),
(573,666,o),
(377,666,cs),
(194,666,o),
(50,561,o),
(50,427,cs),
(50,363,o),
(84,294,o),
(127,270,cs),
(159,252,o),
(196,235,o),
(219,228,c),
(263,268,l),
(228,282,o),
(193,300,o),
(172,314,cs),
(142,333,o),
(123,376,o),
(123,427,cs),
(123,536,o),
(221,604,o),
(377,604,cs),
(551,604,o),
(660,494,o),
(660,320,cs)
);
},
{
closed = 1;
nodes = (
(385,217,l),
(376,235,o),
(336,286,o),
(282,286,cs),
(240,286,o),
(190,267,o),
(170,222,cs),
(144,165,o),
(159,104,o),
(171,10,c),
(231,16,l),
(224,116,o),
(226,182,o),
(235,202,cs),
(245,221,o),
(262,233,o),
(282,233,cs),
(297,233,o),
(311,224,o),
(320,210,c),
(323,17,l),
(382,17,l)
);
},
{
closed = 1;
nodes = (
(385,210,l),
(393,224,o),
(407,233,o),
(423,233,cs),
(442,233,o),
(459,221,o),
(470,202,cs),
(479,182,o),
(481,116,o),
(474,16,c),
(534,10,l),
(545,104,o),
(561,165,o),
(535,222,cs),
(515,267,o),
(465,286,o),
(423,286,cs),
(369,286,o),
(329,235,o),
(320,217,c)
);
}
);
width = 780;
}
);
note = or_la;
unicode = 2866;
}
{
glyphname = or_sha;
layers = (
{
background = {
shapes = (
{
closed = 1;
nodes = (
(294,189,q),
(306,188,o),
(320,183,qs),
(328,179,o),
(336,175,qs),
(349,167,o),
(358,159,qs),
(367,150,o),
(380,129,o),
(387,105,o),
(387,92,qs),
(387,75,o),
(377,46,o),
(366,34,qs),
(355,20,o),
(342,13,qs),
(327,5,o),
(312,6,qs),
(305,6,o),
(298,9,q),
(289,11,o),
(271,22,o),
(264,29,qs),
(256,36,o),
(249,45,qs),
(239,59,o),
(233,76,qs),
(228,93,o),
(228,111,qs),
(228,117,o),
(229,123,qs),
(230,129,o),
(232,136,qs),
(236,150,o),
(252,173,o),
(263,180,qs),
(270,185,o),
(284,190,o),
(291,190,qs),
(292,190,o)
);
},
{
closed = 1;
nodes = (
(149,468,qs),
(95,448,o),
(67,408,qs),
(50,384,o),
(44,356,qs),
(43,350,l),
(46,344,ls),
(87,253,o),
(194,218,q),
(155,191,o),
(141,147,qs),
(136,128,o),
(136,108,qs),
(136,61,o),
(166,20,qs),
(214,-45,o),
(300,-51,qs),
(307,-52,o),
(314,-52,qs),
(353,-52,o),
(425,-22,o),
(449,8,qs),
(479,45,o),
(479,92,qs),
(479,129,o),
(459,161,qs),
(423,219,o),
(325,247,qs),
(312,250,o),
(286,256,qs),
(231,270,o),
(208,281,qs),
(162,305,o),
(137,354,q),
(142,371,o),
(151,384,qs),
(180,425,o),
(241,425,qs),
(285,425,o),
(327,406,qs),
(379,383,l),
(398,421,l),
(400,425,l),
(409,442,l),
(306,503,l),
(286,522,o),
(286,552,qs),
(286,562,o),
(290,573,qs),
(297,593,o),
(329,618,o),
(378,635,o),
(408,635,qs),
(471,635,o),
(526,594,qs),
(575,558,o),
(599,500,qs),
(601,496,l),
(601,-7,l),
(693,-7,l),
(693,687,l),
(601,687,l),
(601,628,l),
(599,630,o),
(597,631,q),
(531,681,o),
(446,691,qs),
(427,693,o),
(408,693,qs),
(354,693,o),
(306,676,qs),
(268,663,o),
(242,642,qs),
(212,618,o),
(200,586,qs),
(194,569,o),
(194,551,qs),
(194,512,o),
(219,482,q),
(181,479,o)
);
}
);
};
backgroundImage = {
imagePath = "../../../../sha.png";
scale = (1.5769,1.5769);
};
layerId = m01;
shapes = (
{
closed = 1;
nodes = (
(561,17,l),
(623,17,l),
(623,646,l),
(561,646,l)
);
},
{
closed = 1;
nodes = (
(383,-3,o),
(445,59,o),
(445,132,cs),
(445,205,o),
(383,267,o),
(303,267,cs),
(223,267,o),
(161,205,o),
(161,132,cs),
(161,59,o),
(223,-3,o),
(303,-3,cs)
);
},
{
closed = 1;
nodes = (
(265,53,o),
(231,87,o),
(231,132,cs),
(231,177,o),
(265,211,o),
(303,211,cs),
(341,211,o),
(375,177,o),
(375,132,cs),
(375,87,o),
(341,53,o),
(303,53,cs)
);
},
{
closed = 1;
nodes = (
(312,457,o),
(229,501,o),
(158,472,c),
(98,455,o),
(45,398,o),
(51,354,cs),
(58,296,o),
(105,240,o),
(209,196,cs),
(236,185,l),
(264,236,l),
(237,248,ls),
(156,282,o),
(126,320,o),
(121,362,cs),
(119,376,o),
(152,415,o),
(183,420,c),
(225,438,o),
(275,409,o),
(341,380,cs),
(368,369,l),
(396,420,l),
(369,432,ls)
);
},
{
closed = 1;
nodes = (
(610,558,o),
(606,561,o),
(602,565,cs),
(515,641,o),
(465,675,o),
(376,675,cs),
(315,675,o),
(249,659,o),
(214,614,cs),
(166,554,o),
(162,474,o),
(243,431,cs),
(273,415,l),
(315,448,l),
(293,471,ls),
(252,513,o),
(244,550,o),
(268,580,cs),
(292,610,o),
(327,619,o),
(376,619,cs),
(441,619,o),
(474,596,o),
(568,512,cs),
(591,491,l),
(614,554,l)
);
}
);
width = 693;
}
);
note = or_sha;
unicode = 2870;
}
{
glyphname = or_ailengthmk;
layers = (
{
background = {
shapes = (
{
closed = 1;
nodes = (
(-46,719,q),
(45,704,l),
(48,729,o),
(48,746,qs),
(48,794,o),
(28,838,qs),
(-2,900,o),
(-63,936,qs),
(-128,974,o),
(-216,974,qs),
(-275,974,o),
(-342,956,qs),
(-382,945,o),
(-529,888,o),
(-565,879,qs),
(-628,862,o),
(-693,862,qs),
(-822,862,o),
(-934,922,qs),
(-963,937,l),
(-994,878,l),
(-856,804,o),
(-693,804,qs),
(-609,804,o),
(-529,826,qs),
(-487,837,o),
(-340,893,o),
(-305,903,qs),
(-255,917,o),
(-216,917,qs),
(-165,917,o),
(-126,894,qs),
(-83,869,o),
(-61,822,qs),
(-44,786,o),
(-44,746,qs),
(-44,732,o)
);
}
);
};
layerId = m01;
shapes = (
{
closed = 1;
nodes = (
(-603,931,o),
(-528,904,o),
(-461,904,cs),
(-358,904,o),
(-65,971,o),
(38,976,cs),
(145,981,o),
(193,902,o),
(175,832,cs),
(165,793,o),
(114,751,o),
(72,741,cs),
(44,735,l),
(60,680,l),
(88,687,ls),
(157,703,o),
(229,763,o),
(243,818,cs),
(273,935,o),
(181,1039,o),
(34,1032,cs),
(-75,1027,o),
(-368,960,o),
(-461,960,cs),
(-509,960,o),
(-549,975,o),
(-565,1009,cs),
(-580,1040,l),
(-643,1015,l),
(-629,985,ls)
);
}
);
width = 0;
}
);
note = or_ailengthmk;
unicode = 2902;
}
{
glyphname = quoteright;
layers = (
{
layerId = m01;
shapes = (
{
closed = 1;
nodes = (
(176,768,o),
(154,800,o),
(122,818,o),
(100,818,qs),
(69,818,o),
(36,781,o),
(36,751,qs),
(36,730,o),
(51,704,o),
(77,691,o),
(109,686,o),
(127,686,qs),
(135,686,o),
(122,645,o),
(90,589,o),
(48,536,o),
(28,524,q),
(43,504,l),
(62,512,o),
(76,522,o),
(84,528,qs),
(126,563,o),
(187,653,o),
(187,711,qs),
(187,730,o)
);
}
);
userData = {
assembly = "SVTCA[0]	/* SetFreedomAndProjectionVectorToAxis */
PUSHW[ ]	/* 1 value pushed */
3
MDAP[1]	/* MoveDirectAbsPt */
PUSHW[ ]	/* 1 value pushed */
7
MDAP[1]	/* MoveDirectAbsPt */
IUP[0]	/* InterpolateUntPts */
IUP[1]	/* InterpolateUntPts */";
};
width = 226;
}
);
note = quoteright;
unicode = 8217;
}
{
glyphname = quotedblleft;
layers = (
{
layerId = m01;
shapes = (
{
closed = 1;
nodes = (
(39,554,o),
(61,523,o),
(92,504,o),
(114,504,qs),
(145,504,o),
(179,542,o),
(179,572,qs),
(179,593,o),
(163,618,o),
(138,632,o),
(105,636,o),
(88,636,qs),
(79,636,o),
(92,678,o),
(124,733,o),
(166,787,o),
(187,799,q),
(171,818,l),
(153,811,o),
(139,800,o),
(131,795,q),
(89,760,o),
(28,670,o),
(28,612,qs),
(28,593,o)
);
},
{
closed = 1;
nodes = (
(261,554,o),
(283,523,o),
(314,504,o),
(336,504,qs),
(367,504,o),
(401,542,o),
(401,572,qs),
(401,593,o),
(386,618,o),
(361,632,o),
(327,636,o),
(310,636,qs),
(301,636,o),
(314,678,o),
(346,733,o),
(388,787,o),
(409,799,q),
(393,818,l),
(375,811,o),
(361,800,o),
(353,795,q),
(311,760,o),
(250,670,o),
(250,612,qs),
(250,593,o)
);
}
);
userData = {
assembly = "SVTCA[0]	/* SetFreedomAndProjectionVectorToAxis */
PUSHW[ ]	/* 1 value pushed */
6
MDAP[1]	/* MoveDirectAbsPt */
PUSHW[ ]	/* 1 value pushed */
31
MDAP[1]	/* MoveDirectAbsPt */
IUP[0]	/* InterpolateUntPts */
IUP[1]	/* InterpolateUntPts */";
};
width = 431;
}
);
note = quotedblleft;
unicode = 8220;
}
{
glyphname = quotedblbase;
layers = (
{
layerId = m01;
shapes = (
{
closed = 1;
nodes = (
(398,61,o),
(376,92,o),
(344,111,o),
(322,111,qs),
(291,111,o),
(258,73,o),
(258,43,qs),
(258,22,o),
(274,-3,o),
(299,-17,o),
(331,-21,o),
(349,-21,qs),
(357,-21,o),
(344,-63,o),
(312,-118,o),
(270,-171,o),
(250,-183,q),
(265,-203,l),
(284,-195,o),
(298,-185,o),
(306,-180,q),
(348,-145,o),
(409,-55,o),
(409,3,qs),
(409,22,o)
);
},
{
closed = 1;
nodes = (
(176,61,o),
(154,92,o),
(122,111,o),
(100,111,qs),
(69,111,o),
(36,73,o),
(36,43,qs),
(36,22,o),
(51,-3,o),
(77,-17,o),
(109,-21,o),
(127,-21,qs),
(135,-21,o),
(122,-63,o),
(90,-118,o),
(48,-171,o),
(28,-183,q),
(43,-203,l),
(62,-195,o),
(76,-185,o),
(84,-180,q),
(126,-145,o),
(187,-55,o),
(187,3,qs),
(187,22,o)
);
}
);
width = 431;
}
);
note = quotedblbase;
unicode = 8222;
}
{
glyphname = ellipsis;
layers = (
{
layerId = m01;
shapes = (
{
closed = 1;
nodes = (
(122,-17,o),
(151,-17,qs),
(180,-17,o),
(221,23,o),
(221,52,qs),
(221,82,o),
(180,123,o),
(151,123,qs),
(122,123,o),
(82,81,o),
(82,52,qs),
(82,23,o)
);
},
{
closed = 1;
nodes = (
(425,-17,o),
(455,-17,qs),
(484,-17,o),
(524,23,o),
(524,52,qs),
(524,82,o),
(484,123,o),
(455,123,qs),
(424,123,o),
(386,81,o),
(386,52,qs),
(386,23,o)
);
},
{
closed = 1;
nodes = (
(729,-17,o),
(758,-17,qs),
(787,-17,o),
(828,23,o),
(828,52,qs),
(828,82,o),
(787,123,o),
(758,123,qs),
(728,123,o),
(689,81,o),
(689,52,qs),
(689,23,o)
);
}
);
width = 909;
}
);
note = ellipsis;
unicode = 8230;
}
{
export = 0;
glyphname = _corner.inkSquareAngle;
layers = (
{
anchors = (
{
name = left;
pos = (-2,29);
},
{
name = origin;
pos = (0,17);
},
{
name = right;
pos = (0,8);
}
);
layerId = m01;
shapes = (
{
closed = 0;
nodes = (
(0,8,l),
(-7,12,l),
(-7,22,l),
(-2,29,l)
);
}
);
width = 729;
}
);
}
{
export = 0;
glyphname = _or.2;
layers = (
{
layerId = m01;
shapes = (
{
closed = 0;
nodes = (
(537,-84,l),
(524,-84,l),
(520,-69,o),
(516,-54,o),
(519,-39,cs),
(523,-19,o),
(546,0,o),
(573,0,cs),
(601,0,o),
(637,-10,o),
(647,-39,cs),
(662,-83,o),
(623,-122,o),
(593,-145,c),
(692,-195,l),
(701,-200,o),
(711,-206,o),
(720,-212,c)
);
}
);
width = 649;
}
);
}
{
export = 0;
glyphname = "_or.ja-ya-curve";
layers = (
{
layerId = m01;
shapes = (
{
closed = 0;
nodes = (
(60,142,l),
(319,333,l)
);
},
{
closed = 0;
nodes = (
(243,277,l),
(223,274,o),
(201,272,o),
(186,273,cs),
(110,281,o),
(61,340,o),
(60,425,cs),
(60,521,o),
(133,645,o),
(305,645,cs),
(427,645,o),
(505,593,o),
(573,491,c)
);
},
{
closed = 0;
nodes = (
(247,275,l),
(225,240,o),
(211,193,o),
(211,153,cs),
(211,76,o),
(257,28,o),
(331,28,cs),
(427,28,o),
(520,95,o),
(573,201,c)
);
}
);
width = 649;
}
);
}
{
export = 0;
glyphname = _or.raMunduli;
layers = (
{
layerId = m01;
shapes = (
{
closed = 0;
nodes = (
(260,254,l),
(211,254,o),
(164,256,o),
(137,273,cs),
(103,294,o),
(87,356,o),
(87,427,c),
(87,549,o),
(197,644,o),
(336,644,c),
(508,644,o),
(644,502,o),
(644,321,cs),
(644,242,o),
(596,121,o),
(535,46,c),
(529,36,o),
(527,25,o),
(531,20,c),
(701,-65,l)
);
}
);
width = 714;
}
);
}
{
export = 0;
glyphname = "_or.tta-o-wa";
layers = (
{
layerId = m01;
shapes = (
{
closed = 0;
nodes = (
(285,254,l),
(229,254,o),
(175,256,o),
(144,273,cs),
(105,294,o),
(87,356,o),
(87,427,c),
(87,549,o),
(213,644,o),
(373,644,c),
(570,644,o),
(726,532,o),
(726,321,cs),
(726,242,o),
(671,121,o),
(601,46,c),
(594,36,o),
(592,25,o),
(597,20,c),
(792,-65,l)
);
},
{
closed = 0;
nodes = (
(361,411,l),
(388,461,o),
(458,496,o),
(511,450,cs),
(551,415,o),
(543,347,o),
(507,300,cs),
(483,268,o),
(446,240,o),
(402,224,c)
);
},
{
closed = 0;
nodes = (
(431,231,l),
(469,225,o),
(510,192,o),
(509,135,cs),
(508,65,o),
(434,28,o),
(365,27,cs),
(282,26,o),
(197,54,o),
(193,151,cs),
(190,220,o),
(238,240,o),
(270,255,c)
);
}
);
width = 836;
}
);
}
{
export = 0;
glyphname = _or.vertHoriGuides;
layers = (
{
layerId = m01;
shapes = (
{
closed = 1;
nodes = (
(55,399,l),
(126,399,l),
(126,453,l),
(55,453,l)
);
},
{
closed = 1;
nodes = (
(303,615,l),
(329,615,l),
(329,671,l),
(303,671,l)
);
},
{
closed = 1;
nodes = (
(338,654,l),
(338,645,l),
(344,641,l),
(344,635,l),
(338,632,l),
(338,629,l),
(350,635,l),
(350,642,l),
(344,648,l),
(344,651,l),
(351,651,l),
(351,654,l)
);
},
{
closed = 1;
nodes = (
(354,645,l),
(354,638,l),
(357,632,l),
(363,632,l),
(366,638,l),
(366,642,l),
(360,642,l),
(357,645,l),
(363,651,l),
(366,648,l),
(369,651,l),
(363,654,l)
);
},
{
closed = 1;
nodes = (
(363,641,l),
(363,638,l),
(360,635,l),
(357,641,l)
);
},
{
closed = 1;
nodes = (
(134,438,l),
(148,437,l),
(137,417,l),
(142,417,l),
(154,437,l),
(154,442,l),
(134,443,l)
);
},
{
closed = 1;
nodes = (
(156,429,l),
(159,429,l),
(164,438,l),
(164,416,l),
(168,416,l),
(168,443,l),
(164,443,l)
);
}
);
width = 722;
}
);
}
{
export = 0;
glyphname = _or_ai_kaar;
layers = (
{
layerId = m01;
shapes = (
{
closed = 0;
nodes = (
(1349,723,l),
(1355,795,o),
(1374,902,o),
(1282,966,cs),
(1239,996,o),
(1178,994,o),
(1101,973,cs),
(988,942,o),
(963,931,o),
(849,902,cs),
(755,878,o),
(687,896,o),
(657,947,c)
);
}
);
width = 1392;
}
);
}
{
export = 0;
glyphname = _or_gha;
layers = (
{
layerId = m01;
shapes = (
{
closed = 0;
nodes = (
(339,336,l),
(280,311,o),
(195,255,o),
(169,204,cs),
(145,158,o),
(146,103,o),
(177,68,cs),
(223,17,o),
(313,41,o),
(347,75,cs),
(395,123,o),
(404,172,o),
(416,241,c)
);
},
{
closed = 0;
nodes = (
(384,123,l),
(395,58,o),
(426,17,o),
(481,18,cs),
(561,19,o),
(582,80,o),
(632,172,c)
);
},
{
closed = 0;
nodes = (
(241,261,l),
(147,284,o),
(99,336,o),
(99,428,cs),
(99,569,o),
(203,637,o),
(348,637,cs),
(476,637,o),
(561,543,o),
(632,427,c)
);
}
);
width = 743;
}
);
}
{
export = 0;
glyphname = _or_o;
layers = (
{
layerId = m01;
shapes = (
{
closed = 0;
nodes = (
(460,391,l)
);
},
{
closed = 0;
nodes = (
(535,297,l),
(576,283,o),
(632,254,o),
(632,177,cs),
(632,74,o),
(564,29,o),
(462,29,cs),
(272,29,o),
(134,143,o),
(134,341,cs),
(134,515,o),
(206,620,o),
(304,677,cs),
(403,734,o),
(474,739,o),
(560,760,cs),
(593,768,o),
(688,788,o),
(703,826,c)
);
},
{
closed = 0;
nodes = (
(446,414,l),
(427,406,o),
(390,409,o),
(373,421,cs),
(336,446,o),
(329,476,o),
(334,509,cs),
(343,565,o),
(421,611,o),
(515,602,cs),
(610,593,o),
(656,544,o),
(656,473,cs),
(656,377,o),
(560,321,o),
(515,299,c),
(367,252,l)
);
}
);
width = 811;
}
);
}
{
glyphname = or_b_rukaar;
layers = (
{
layerId = m01;
shapes = (
{
closed = 1;
nodes = (
(433,294,qs),
(456,278,o),
(462,248,q),
(462,169,l),
(443,145,o),
(388,119,o),
(356,119,qs),
(332,119,o),
(310,127,qs),
(276,139,o),
(261,168,qs),
(253,184,o),
(253,224,o),
(262,243,qs),
(274,268,o),
(297,284,qs),
(316,296,o),
(337,299,q),
(336,300,l),
(369,306,o),
(387,306,qs),
(416,306,o)
);
},
{
closed = 1;
nodes = (
(190,126,o),
(236,90,o),
(266,79,qs),
(308,64,o),
(356,64,qs),
(414,64,o),
(462,85,q),
(462,-62,l),
(550,-62,l),
(550,156,l),
(550,156,l),
(550,156,l),
(550,251,l),
(541,301,o),
(455,361,o),
(387,361,qs),
(352,361,o),
(287,348,qs),
(233,338,o),
(217,338,qs),
(212,338,o),
(202,340,o),
(194,345,qs),
(181,354,o),
(172,371,qs),
(158,396,o),
(158,430,qs),
(158,461,o),
(184,526,o),
(210,554,qs),
(257,606,o),
(332,627,qs),
(371,637,o),
(410,637,qs),
(489,637,o),
(557,598,qs),
(610,567,o),
(650,513,qs),
(714,426,o),
(714,316,qs),
(714,217,o),
(664,124,qs),
(652,103,o),
(609,35,o),
(600,20,qs),
(561,-46,o),
(552,-99,qs),
(550,-116,o),
(550,-133,qs),
(550,-201,o),
(588,-254,qs),
(633,-315,o),
(712,-333,qs),
(739,-340,o),
(768,-340,qs),
(824,-340,o),
(925,-291,o),
(952,-247,qs),
(974,-212,o),
(974,-173,qs),
(974,-161,o),
(971,-150,q),
(964,-109,o),
(933,-83,qs),
(898,-54,o),
(799,-54,o),
(763,-85,qs),
(743,-103,o),
(730,-129,qs),
(713,-165,o),
(713,-243,o),
(729,-278,q),
(692,-264,o),
(668,-231,qs),
(638,-189,o),
(638,-133,qs),
(638,-119,o),
(640,-105,qs),
(647,-58,o),
(683,1,qs),
(691,15,o),
(735,84,o),
(747,107,qs),
(802,208,o),
(802,316,qs),
(802,439,o),
(729,537,qs),
(684,600,o),
(616,639,qs),
(524,692,o),
(410,692,qs),
(352,692,o),
(297,677,qs),
(195,649,o),
(134,582,qs),
(102,547,o),
(70,467,o),
(70,387,o),
(90,351,qs),
(104,326,o),
(157,289,o),
(194,284,q),
(165,247,o),
(165,203,qs),
(165,176,o)
);
},
{
closed = 1;
nodes = (
(801,-173,o),
(815,-145,qs),
(823,-127,o),
(835,-117,qs),
(842,-111,o),
(849,-109,q),
(855,-110,o),
(862,-116,qs),
(879,-130,o),
(884,-156,qs),
(886,-165,o),
(886,-173,qs),
(886,-202,o),
(870,-227,qs),
(852,-257,o),
(819,-273,q),
(801,-241,o)
);
}
);
width = 916;
}
);
note = or_b_rukaar;
}
{
glyphname = or_bha_phalaa;
layers = (
{
layerId = m01;
shapes = (
{
closed = 1;
nodes = (
(65,-74,o),
(-13,-2,o),
(-66,15,qs),
(-109,30,o),
(-156,30,qs),
(-230,30,o),
(-292,-4,qs),
(-342,-31,o),
(-367,-72,qs),
(-387,-105,o),
(-387,-141,qs),
(-387,-155,o),
(-384,-167,qs),
(-375,-207,o),
(-340,-227,q),
(-348,-243,o),
(-348,-261,qs),
(-348,-289,o),
(-329,-314,qs),
(-313,-336,o),
(-285,-349,qs),
(-251,-366,o),
(-208,-366,qs),
(-188,-366,o),
(-167,-362,qs),
(-76,-345,o),
(-22,-276,qs),
(-18,-271,l),
(-18,-266,l),
(-14,-217,l),
(-13,-209,l),
(-57,-165,l),
(-96,-200,o),
(-97,-201,q),
(-104,-194,o),
(-107,-184,qs),
(-108,-179,o),
(-108,-163,o),
(-103,-155,q),
(-171,-113,l),
(-185,-135,ls),
(-196,-153,o),
(-196,-174,qs),
(-196,-184,o),
(-194,-193,qs),
(-185,-226,o),
(-152,-244,qs),
(-131,-255,o),
(-105,-257,q),
(-141,-300,o),
(-191,-309,qs),
(-200,-311,o),
(-208,-311,qs),
(-234,-311,o),
(-251,-289,qs),
(-260,-277,o),
(-260,-261,qs),
(-260,-243,o),
(-248,-232,qs),
(-245,-230,o),
(-243,-229,qs),
(-218,-218,l),
(-225,-199,l),
(-226,-197,l),
(-244,-152,l),
(-289,-178,l),
(-299,-163,o),
(-299,-141,qs),
(-299,-115,o),
(-285,-91,qs),
(-267,-64,o),
(-197,-25,o),
(-156,-25,qs),
(-95,-25,o),
(-45,-71,qs),
(-15,-98,o),
(16,-172,o),
(16,-212,qs),
(16,-276,o),
(-21,-326,qs),
(-23,-329,l),
(-24,-333,l),
(-25,-337,l),
(-30,-353,l),
(77,-405,l),
(93,-411,o),
(118,-416,o),
(134,-417,q),
(138,-362,l),
(133,-361,o),
(127,-359,q),
(71,-332,l),
(104,-277,o),
(104,-212,qs),
(104,-165,o)
);
}
);
width = 0;
}
);
note = or_bha_phalaa;
}
{
glyphname = or_d_bha;
layers = (
{
layerId = m01;
shapes = (
{
closed = 1;
nodes = (
(135,251,o),
(168,242,q),
(144,203,o),
(144,155,qs),
(144,145,o),
(145,135,qs),
(153,65,o),
(262,-40,o),
(343,-54,qs),
(368,-58,o),
(393,-58,qs),
(448,-58,o),
(501,-39,qs),
(568,-15,o),
(621,36,qs),
(679,92,o),
(709,169,q),
(710,316,l),
(618,317,l),
(617,199,l),
(600,190,o),
(584,190,qs),
(573,190,o),
(562,198,qs),
(554,204,o),
(543,227,o),
(543,242,qs),
(543,265,o),
(556,286,qs),
(568,306,l),
(542,319,l),
(533,323,l),
(487,346,l),
(463,313,l),
(450,295,l),
(440,284,o),
(428,280,qs),
(425,279,o),
(419,279,o),
(415,282,qs),
(405,288,o),
(391,315,o),
(391,334,qs),
(391,354,o),
(409,389,o),
(424,398,q),
(385,457,l),
(357,438,ls),
(328,419,o),
(299,363,o),
(299,306,o),
(312,281,qs),
(324,257,o),
(349,242,qs),
(381,222,o),
(423,222,qs),
(438,222,o),
(452,224,q),
(459,186,o),
(493,160,qs),
(531,132,o),
(585,132,qs),
(590,132,o),
(596,133,q),
(574,96,o),
(544,67,qs),
(503,28,o),
(455,11,qs),
(424,0,o),
(393,0,qs),
(380,0,o),
(367,2,qs),
(320,10,o),
(285,44,qs),
(243,84,o),
(237,139,q),
(237,147,o),
(237,155,qs),
(237,194,o),
(256,224,qs),
(266,239,o),
(279,249,qs),
(296,262,l),
(287,277,l),
(284,283,l),
(263,317,l),
(215,296,l),
(211,295,o),
(208,295,qs),
(200,295,o),
(189,305,qs),
(174,320,o),
(167,349,qs),
(162,368,o),
(162,413,o),
(169,437,qs),
(181,480,o),
(211,515,qs),
(264,576,o),
(355,598,qs),
(395,607,o),
(435,607,qs),
(519,607,o),
(593,569,qs),
(651,539,o),
(743,435,o),
(786,313,o),
(786,251,qs),
(786,214,o),
(779,179,qs),
(760,82,o),
(693,10,qs),
(689,6,l),
(688,1,l),
(686,-6,l),
(681,-24,l),
(873,-117,l),
(898,-127,o),
(939,-134,o),
(962,-136,q),
(966,-78,l),
(945,-77,o),
(925,-69,q),
(787,-2,l),
(851,75,o),
(871,172,qs),
(879,211,o),
(879,251,qs),
(879,319,o),
(856,384,qs),
(830,456,o),
(724,576,o),
(652,613,qs),
(552,665,o),
(435,665,qs),
(378,665,o),
(323,652,qs),
(199,622,o),
(130,542,qs),
(93,499,o),
(78,447,qs),
(70,418,o),
(70,364,o),
(76,340,qs),
(86,299,o)
);
}
);
width = 931;
}
);
note = or_d_bha;
}
{
glyphname = or_dda_phalaa;
layers = (
{
layerId = m01;
shapes = (
{
closed = 1;
nodes = (
(-159,-313,qs),
(-119,-337,o),
(-68,-337,qs),
(-3,-337,o),
(36,-300,qs),
(70,-270,o),
(70,-226,qs),
(70,-221,o),
(67,-199,q),
(42,-191,l),
(29,-188,l),
(44,-157,l),
(-34,-119,l),
(-82,-219,l),
(-46,-229,l),
(-24,-236,l),
(-27,-256,o),
(-52,-279,o),
(-68,-279,qs),
(-82,-279,o),
(-95,-271,qs),
(-103,-266,o),
(-109,-260,q),
(-118,-248,o),
(-118,-233,qs),
(-118,-219,o),
(-110,-210,qs),
(-101,-199,l),
(-107,-187,l),
(-108,-186,l),
(-117,-170,l),
(-142,-167,l),
(-150,-163,o),
(-159,-142,o),
(-159,-126,o),
(-158,-120,qs),
(-152,-89,o),
(-122,-69,qs),
(-100,-54,o),
(-69,-49,qs),
(-57,-47,o),
(-46,-47,qs),
(5,-47,o),
(41,-82,qs),
(78,-119,o),
(78,-173,qs),
(78,-174,l),
(170,-174,l),
(170,-174,o),
(170,-173,qs),
(170,-103,o),
(119,-52,qs),
(81,-14,o),
(24,1,qs),
(-10,10,o),
(-46,10,qs),
(-68,10,o),
(-90,7,qs),
(-150,-2,o),
(-191,-31,qs),
(-240,-64,o),
(-249,-113,qs),
(-251,-122,o),
(-251,-131,qs),
(-251,-150,o),
(-244,-166,qs),
(-233,-193,o),
(-207,-208,q),
(-211,-220,o),
(-211,-231,qs),
(-211,-261,o),
(-191,-286,qs),
(-178,-301,o)
);
}
);
width = 0;
}
);
note = or_dda_phalaa;
}
{
glyphname = or_dh_yya.alt;
layers = (
{
layerId = m01;
shapes = (
{
closed = 1;
nodes = (
(194,58,qs),
(169,71,o),
(141,133,o),
(141,223,o),
(159,265,qs),
(176,305,o),
(236,353,o),
(313,378,qs),
(338,386,o),
(403,407,q),
(114,734,l),
(71,703,ls),
(54,691,o),
(47,673,qs),
(44,663,o),
(44,653,qs),
(44,629,o),
(62,611,qs),
(75,598,o),
(109,586,o),
(128,586,qs),
(134,586,o),
(139,587,q),
(276,431,l),
(274,430,o),
(271,429,qs),
(175,399,o),
(92,331,o),
(49,231,o),
(49,174,qs),
(49,126,o),
(66,88,qs),
(88,38,o),
(135,13,qs),
(172,-5,o),
(256,-5,o),
(299,11,qs),
(309,15,o),
(321,21,q),
(334,2,o),
(356,-10,qs),
(384,-26,o),
(422,-26,qs),
(470,-26,o),
(522,4,qs),
(554,23,o),
(582,46,q),
(582,-5,l),
(674,-5,l),
(674,692,l),
(582,692,l),
(582,174,l),
(538,92,o),
(459,46,qs),
(434,32,o),
(421,32,qs),
(419,32,o),
(416,33,q),
(409,37,o),
(399,57,o),
(399,64,qs),
(399,69,o),
(400,73,q),
(400,73,o),
(401,73,q),
(462,121,o),
(481,159,qs),
(494,186,o),
(494,213,qs),
(494,253,o),
(466,281,qs),
(447,299,o),
(418,308,qs),
(399,313,o),
(367,313,o),
(356,311,qs),
(306,304,o),
(270,268,qs),
(226,223,o),
(226,161,qs),
(226,107,o),
(262,65,q),
(220,45,o)
);
},
{
closed = 1;
nodes = (
(393,176,qs),
(379,149,o),
(331,111,q),
(318,135,o),
(318,161,qs),
(318,207,o),
(348,238,qs),
(364,253,o),
(377,255,qs),
(378,255,o),
(378,255,q),
(383,255,o),
(389,250,q),
(402,236,o),
(402,213,qs),
(402,195,o)
);
}
);
width = 731;
}
);
note = or_dh_yya.alt;
}
{
glyphname = or_h_ma;
layers = (
{
layerId = m01;
shapes = (
{
closed = 1;
nodes = (
(206,-211,qs),
(216,-240,o),
(239,-265,qs),
(279,-306,o),
(353,-326,qs),
(396,-338,o),
(434,-338,qs),
(481,-338,o),
(519,-321,qs),
(545,-310,o),
(563,-292,qs),
(593,-262,o),
(593,-222,qs),
(593,-190,o),
(572,-162,qs),
(541,-124,o),
(476,-102,qs),
(458,-97,l),
(490,-72,o),
(527,-56,qs),
(580,-34,o),
(634,-34,qs),
(641,-34,o),
(648,-34,q),
(648,-312,l),
(740,-312,l),
(740,11,l),
(707,17,ls),
(671,24,o),
(634,24,qs),
(606,24,o),
(580,20,q),
(580,280,l),
(533,280,l),
(525,280,l),
(488,280,l),
(480,258,ls),
(457,195,o),
(419,146,qs),
(376,91,o),
(331,74,qs),
(316,68,o),
(298,68,o),
(293,69,qs),
(271,75,o),
(258,100,qs),
(248,118,o),
(248,141,qs),
(248,174,o),
(269,213,qs),
(280,234,o),
(295,253,qs),
(355,322,l),
(298,379,l),
(212,285,ls),
(202,275,o),
(194,275,qs),
(186,275,o),
(175,283,qs),
(154,299,o),
(144,332,qs),
(136,356,o),
(136,414,o),
(145,447,qs),
(162,505,o),
(202,550,qs),
(235,587,o),
(326,629,o),
(374,629,qs),
(463,629,o),
(542,567,qs),
(590,530,o),
(625,475,qs),
(689,374,o),
(689,251,qs),
(689,196,o),
(674,142,q),
(762,119,l),
(765,133,ls),
(781,191,o),
(781,311,o),
(767,367,qs),
(729,513,o),
(615,603,qs),
(507,687,o),
(374,687,qs),
(296,687,o),
(227,655,qs),
(164,626,o),
(74,525,o),
(55,457,qs),
(44,419,o),
(44,350,o),
(53,320,qs),
(68,274,o),
(104,247,qs),
(135,223,o),
(175,218,q),
(156,177,o),
(156,109,o),
(170,82,qs),
(173,77,o),
(176,72,q),
(88,-37,l),
(88,-44,l),
(88,-52,l),
(88,-72,l),
(227,-105,l),
(200,-135,o),
(200,-175,qs),
(200,-193,o)
);
},
{
closed = 1;
nodes = (
(316,-126,q),
(438,-154,l),
(458,-161,o),
(473,-173,qs),
(501,-193,o),
(501,-222,qs),
(501,-245,o),
(485,-262,qs),
(455,-291,o),
(389,-273,qs),
(343,-261,o),
(318,-235,qs),
(303,-219,o),
(297,-199,qs),
(293,-187,o),
(293,-177,qs),
(293,-148,o),
(310,-131,qs),
(313,-128,o)
);
},
{
closed = 1;
nodes = (
(258,16,qs),
(280,10,o),
(304,10,qs),
(342,10,o),
(380,25,qs),
(439,48,o),
(487,103,q),
(487,-3,l),
(483,-5,o),
(479,-7,qs),
(417,-33,o),
(369,-76,q),
(193,-35,l),
(239,22,l),
(248,19,o)
);
}
);
width = 832;
}
);
note = or_h_ma;
}
{
glyphname = or_h_ukaar;
layers = (
{
layerId = m01;
shapes = (
{
closed = 1;
nodes = (
(290,-164,o),
(295,-154,qs),
(300,-143,o),
(316,-127,o),
(327,-122,q),
(516,-157,l),
(524,-161,l),
(528,-164,o),
(532,-168,qs),
(539,-176,o),
(547,-197,o),
(547,-209,qs),
(547,-218,o),
(543,-235,o),
(539,-243,qs),
(526,-269,o),
(496,-283,qs),
(467,-296,o),
(422,-296,qs),
(383,-296,o),
(355,-286,qs),
(328,-276,o),
(309,-256,qs),
(297,-243,o),
(291,-227,qs),
(285,-212,o),
(285,-195,qs),
(285,-184,o)
);
},
{
closed = 1;
nodes = (
(610,-137,qs),
(588,-113,o),
(549,-103,q),
(470,-88,l),
(500,-72,o),
(533,-61,qs),
(591,-42,o),
(652,-42,qs),
(690,-42,o),
(727,-49,qs),
(744,-53,l),
(756,5,l),
(705,16,o),
(652,16,qs),
(629,16,o),
(607,14,q),
(607,280,l),
(560,280,l),
(552,280,l),
(517,280,l),
(508,259,ls),
(480,195,o),
(440,146,qs),
(416,115,o),
(371,80,o),
(338,68,o),
(322,68,o),
(318,69,qs),
(296,75,o),
(285,99,qs),
(278,115,o),
(278,134,qs),
(278,164,o),
(294,196,qs),
(307,220,o),
(322,239,qs),
(382,308,l),
(325,365,l),
(239,271,ls),
(229,261,o),
(222,261,qs),
(214,261,o),
(202,270,qs),
(181,286,o),
(171,318,qs),
(162,344,o),
(162,406,o),
(171,441,qs),
(188,503,o),
(229,550,qs),
(262,588,o),
(353,631,o),
(400,631,qs),
(488,631,o),
(569,567,qs),
(669,488,o),
(703,358,qs),
(716,306,o),
(716,196,o),
(702,142,q),
(789,119,l),
(792,132,ls),
(808,191,o),
(808,311,o),
(794,367,qs),
(756,512,o),
(642,603,qs),
(533,689,o),
(400,689,qs),
(322,689,o),
(254,657,qs),
(190,627,o),
(148,577,qs),
(100,522,o),
(80,450,qs),
(70,411,o),
(70,338,o),
(80,306,qs),
(96,260,o),
(131,233,qs),
(162,210,o),
(202,205,q),
(186,168,o),
(186,106,o),
(197,83,qs),
(199,78,o),
(202,72,q),
(93,-36,l),
(94,-45,l),
(95,-59,l),
(97,-79,l),
(231,-104,l),
(216,-119,o),
(207,-137,qs),
(193,-164,o),
(193,-195,qs),
(193,-244,o),
(228,-284,qs),
(252,-310,o),
(287,-327,qs),
(343,-354,o),
(422,-354,qs),
(518,-354,o),
(576,-315,qs),
(610,-293,o),
(627,-260,qs),
(640,-235,o),
(640,-209,qs),
(640,-169,o)
);
},
{
closed = 1;
nodes = (
(261,23,l),
(270,19,o),
(280,17,qs),
(302,10,o),
(327,10,qs),
(364,10,o),
(399,24,qs),
(461,47,o),
(514,110,q),
(514,-2,l),
(503,-6,o),
(491,-10,qs),
(425,-32,o),
(369,-70,q),
(200,-38,l)
);
}
);
width = 852;
}
);
note = or_h_ukaar;
}
{
glyphname = or_jha_phalaa;
layers = (
{
layerId = m01;
shapes = (
{
closed = 1;
nodes = (
(88,-98,qs),
(80,-104,o),
(75,-104,qs),
(74,-104,o),
(71,-103,qs),
(59,-99,o),
(42,-70,o),
(42,-54,qs),
(42,-49,o),
(43,-41,q),
(42,-38,l),
(39,-27,l),
(35,-10,l),
(8,-5,ls),
(-21,1,o),
(-51,1,qs),
(-99,1,o),
(-143,-13,qs),
(-197,-31,o),
(-228,-64,qs),
(-245,-82,o),
(-259,-121,o),
(-259,-138,qs),
(-259,-145,o),
(-258,-151,qs),
(-251,-193,o),
(-212,-220,qs),
(-194,-233,o),
(-169,-240,q),
(-182,-260,o),
(-182,-300,o),
(-174,-316,qs),
(-158,-348,o),
(-115,-364,qs),
(-80,-377,o),
(-35,-377,qs),
(14,-377,o),
(51,-364,q),
(100,-383,o),
(156,-394,qs),
(161,-395,o),
(164,-396,o),
(194,-412,q),
(225,-353,l),
(208,-344,o),
(181,-339,qs),
(146,-332,o),
(112,-320,q),
(115,-316,o),
(117,-312,qs),
(126,-295,o),
(126,-277,qs),
(126,-267,o),
(123,-257,qs),
(116,-229,o),
(90,-210,qs),
(51,-180,o),
(-12,-180,qs),
(-35,-180,o),
(-74,-185,q),
(-77,-186,o),
(-81,-186,o),
(-103,-189,o),
(-114,-189,qs),
(-132,-189,o),
(-144,-181,qs),
(-162,-169,o),
(-166,-146,q),
(-166,-142,o),
(-166,-138,qs),
(-166,-113,o),
(-148,-92,qs),
(-131,-74,o),
(-77,-56,o),
(-51,-56,q),
(-51,-56,o),
(-50,-56,q),
(-49,-82,o),
(-36,-104,qs),
(-16,-138,o),
(25,-153,qs),
(49,-161,o),
(75,-161,qs),
(123,-161,o),
(158,-135,qs),
(202,-102,o),
(202,-50,qs),
(202,-16,o),
(181,12,qs),
(163,37,l),
(98,-12,l),
(110,-29,o),
(110,-50,qs),
(110,-81,o)
);
},
{
closed = 1;
nodes = (
(-90,-273,o),
(-80,-253,o),
(-70,-247,qs),
(-65,-243,o),
(-58,-242,o),
(-40,-240,qs),
(-24,-237,o),
(-12,-237,qs),
(7,-237,o),
(18,-246,qs),
(34,-258,o),
(34,-277,qs),
(34,-301,o),
(9,-312,qs),
(-6,-319,o),
(-35,-319,qs),
(-65,-319,o),
(-78,-309,qs),
(-90,-300,o),
(-90,-283,qs),
(-90,-282,o),
(-90,-282,o),
(-90,-282,q)
);
}
);
width = 0;
}
);
note = or_jha_phalaa;
}
{
glyphname = or_k_ka;
layers = (
{
layerId = m01;
shapes = (
{
closed = 1;
nodes = (
(554,-79,q),
(554,-119,l),
(646,-119,l),
(646,56,l),
(647,66,o),
(650,75,qs),
(657,90,o),
(670,98,qs),
(679,103,o),
(689,103,qs),
(698,103,o),
(707,98,qs),
(722,89,o),
(727,72,qs),
(729,65,o),
(729,57,o),
(728,54,q),
(728,-117,l),
(821,-117,l),
(821,53,ls),
(821,56,o),
(821,71,o),
(817,82,qs),
(807,118,o),
(735,161,o),
(689,161,qs),
(643,161,o),
(609,141,q),
(609,192,ls),
(609,195,o),
(609,197,qs),
(609,213,o),
(605,228,qs),
(595,266,o),
(565,291,qs),
(527,322,o),
(475,322,qs),
(460,322,o),
(446,320,qs),
(445,320,l),
(427,316,ls),
(381,306,o),
(333,306,qs),
(299,306,o),
(215,322,q),
(196,329,o),
(182,348,qs),
(164,374,o),
(164,411,qs),
(164,456,o),
(224,553,o),
(271,585,qs),
(338,631,o),
(412,631,qs),
(494,631,o),
(563,582,qs),
(623,540,o),
(695,403,o),
(701,323,qs),
(702,309,o),
(702,264,o),
(697,233,q),
(787,219,l),
(794,262,o),
(794,296,qs),
(794,400,o),
(746,491,qs),
(705,570,o),
(631,621,qs),
(535,688,o),
(412,688,qs),
(376,688,o),
(341,682,qs),
(266,667,o),
(144,584,o),
(71,466,o),
(71,411,qs),
(71,362,o),
(98,324,qs),
(109,309,o),
(124,297,q),
(109,285,o),
(97,269,qs),
(70,232,o),
(70,189,qs),
(70,147,o),
(93,113,qs),
(120,74,o),
(167,57,qs),
(198,46,o),
(232,46,qs),
(282,46,o),
(325,67,q),
(311,43,o),
(311,13,qs),
(311,-40,o),
(356,-76,qs),
(395,-106,o),
(455,-106,qs),
(473,-106,o),
(493,-102,qs),
(525,-96,o)
);
},
{
closed = 1;
nodes = (
(162,159,o),
(162,220,o),
(179,242,qs),
(189,256,o),
(201,264,q),
(266,248,o),
(333,248,qs),
(341,248,o),
(349,248,q),
(347,243,o),
(345,237,qs),
(337,218,o),
(336,198,qs),
(336,179,l),
(318,148,o),
(289,126,qs),
(259,103,o),
(231,103,qs),
(223,103,o),
(214,107,qs),
(193,114,o)
);
},
{
closed = 1;
nodes = (
(554,57,qs),
(554,30,l),
(554,29,l),
(539,4,o),
(520,-15,qs),
(491,-42,o),
(464,-48,qs),
(459,-49,o),
(454,-49,qs),
(439,-49,o),
(427,-39,qs),
(407,-23,o),
(403,5,qs),
(403,9,o),
(403,13,qs),
(403,37,o),
(417,55,qs),
(422,61,o),
(428,66,qs),
(444,77,o),
(473,77,qs),
(482,77,o),
(530,74,o),
(550,68,q),
(552,68,o),
(555,67,q),
(554,62,o)
);
},
{
closed = 1;
nodes = (
(429,211,o),
(434,224,qs),
(442,245,o),
(458,257,qs),
(467,264,o),
(481,265,o),
(491,256,qs),
(508,243,o),
(514,219,qs),
(516,208,o),
(516,196,o),
(516,194,qs),
(516,193,l),
(516,133,l),
(511,133,o),
(506,133,qs),
(488,135,o),
(473,135,qs),
(449,135,o),
(428,131,q),
(428,196,ls)
);
}
);
width = 860;
}
);
note = or_k_ka;
}
{
glyphname = or_k_ss_ii;
layers = (
{
hints = (
{
name = _corner.tailLeft;
origin = (0,1);
type = Corner;
}
);
layerId = m01;
shapes = (
{
closed = 1;
nodes = (
(534,571,l),
(546,17,l),
(602,17,l),
(602,646,l),
(545,646,l)
);
},
{
closed = 1;
nodes = (
(187,255,l),
(137,305,o),
(125,359,o),
(125,429,cs),
(125,527,o),
(194,618,o),
(346,618,cs),
(483,618,o),
(543,412,o),
(543,395,c),
(586,414,l),
(586,451,o),
(566,525,o),
(535,578,c),
(521,582,l),
(485,628,o),
(443,672,o),
(327,672,cs),
(148,672,o),
(56,548,o),
(55,429,cs),
(54,348,o),
(75,267,o),
(147,221,c)
);
},
{
closed = 1;
nodes = (
(302,361,l),
(280,347,o),
(202,281,o),
(178,242,cs),
(164,219,o),
(160,189,o),
(160,166,cs),
(160,44,o),
(252,0,o),
(365,0,cs),
(433,0,o),
(491,40,o),
(536,102,c),
(547,82,l),
(601,371,l),
(562,362,l),
(562,147,o),
(431,53,o),
(356,53,cs),
(284,53,o),
(221,91,o),
(221,171,cs),
(221,224,o),
(290,292,o),
(328,334,c)
);
},
{
closed = 1;
nodes = (
(95,0,o),
(119,19,o),
(119,48,cs),
(119,61,o),
(104,69,o),
(101,76,c),
(98,99,o),
(111,120,o),
(161,158,cs),
(223,205,l),
(188,257,l),
(149,225,o),
(102,181,o),
(70,149,cs),
(65,144,l),
(63,142,ls),
(50,129,o),
(40,116,o),
(33,106,cs),
(27,97,o),
(21,80,o),
(19,67,cs),
(18,63,o),
(17,57,o),
(17,52,cs),
(17,23,o),
(36,0,o),
(65,0,cs)
);
},
{
closed = 1;
nodes = (
(173,567,l),
(141,519,l),
(544,245,l),
(579,288,l)
);
},
{
closed = 1;
nodes = (
(774,796,ls),
(774,851,o),
(698,836,o),
(644,787,cs),
(611,758,o),
(590,734,o),
(575,712,cs),
(559,688,o),
(546,665,o),
(544,636,c),
(602,641,l),
(607,664,ls),
(613,693,o),
(669,733,o),
(690,748,cs),
(692,750,o),
(712,765,o),
(713,745,cs),
(715,704,o),
(714,624,o),
(710,17,c),
(774,17,l)
);
}
);
width = 779;
}
);
note = or_k_ss_ii;
}
{
glyphname = or_k_ta;
layers = (
{
backgroundImage = {
imagePath = "../../../../kta.png";
};
hints = (
{
name = _corner.left;
origin = (1,7);
type = Corner;
}
);
layerId = m01;
shapes = (
{
closed = 1;
nodes = (
(385,-175,o),
(588,-152,o),
(652,-113,c),
(746,-62,o),
(784,1,o),
(766,73,cs),
(751,136,o),
(657,147,o),
(617,94,cs),
(593,62,o),
(587,10,o),
(622,-42,cs),
(637,-65,l),
(685,-39,l),
(670,-16,ls),
(651,12,o),
(656,53,o),
(666,67,cs),
(682,88,o),
(704,86,o),
(710,63,cs),
(722,13,o),
(694,-36,o),
(619,-75,cs),
(561,-107,o),
(389,-125,o),
(324,-100,cs),
(302,-92,l),
(281,-135,l),
(304,-144,ls)
);
},
{
closed = 1;
nodes = (
(686,118,o),
(705,254,o),
(705,340,cs),
(705,546,o),
(557,672,o),
(361,672,cs),
(206,672,o),
(70,551,o),
(70,397,cs),
(70,351,o),
(105,298,o),
(150,276,cs),
(197,256,o),
(233,257,o),
(266,257,cs),
(294,257,l),
(294,304,l),
(266,304,ls),
(233,304,o),
(214,304,o),
(183,316,cs),
(157,328,o),
(140,359,o),
(140,397,cs),
(140,532,o),
(234,616,o),
(361,616,cs),
(532,616,o),
(635,496,o),
(635,341,cs),
(635,245,o),
(615,92,o),
(618,69,c),
(688,98,l)
);
},
{
closed = 1;
nodes = (
(543,220,ls),
(543,262,o),
(504,296,o),
(448,296,cs),
(403,296,o),
(358,262,o),
(358,208,cs),
(358,-1,l),
(418,-1,l),
(418,208,ls),
(418,233,o),
(433,248,o),
(448,248,cs),
(470,248,o),
(483,236,o),
(483,220,cs),
(483,-1,l),
(543,-1,l)
);
},
{
closed = 1;
nodes = (
(352,69,o),
(413,122,o),
(413,187,cs),
(413,253,o),
(352,305,o),
(273,305,cs),
(192,305,o),
(123,254,o),
(123,187,cs),
(123,121,o),
(192,69,o),
(273,69,cs)
);
},
{
closed = 1;
nodes = (
(230,127,o),
(196,153,o),
(196,187,cs),
(196,221,o),
(230,247,o),
(273,247,cs),
(310,247,o),
(341,221,o),
(341,187,cs),
(341,153,o),
(310,127,o),
(273,127,cs)
);
}
);
width = 776;
}
);
note = or_k_ta;
}
{
glyphname = or_k_tta;
layers = (
{
layerId = m01;
shapes = (
{
closed = 1;
nodes = (
(183,235,qs),
(194,249,o),
(207,255,q),
(287,246,o),
(364,246,qs),
(370,246,o),
(376,246,q),
(371,237,o),
(367,227,qs),
(361,208,o),
(359,187,q),
(359,138,l),
(334,120,o),
(304,105,qs),
(270,88,o),
(242,88,qs),
(221,88,o),
(204,98,qs),
(184,111,o),
(163,154,o),
(163,176,qs),
(163,211,o)
);
},
{
closed = 1;
nodes = (
(621,184,o),
(621,186,qs),
(621,202,o),
(617,217,qs),
(609,252,o),
(584,276,qs),
(547,312,o),
(493,312,qs),
(472,312,o),
(454,307,q),
(406,303,o),
(364,303,qs),
(289,303,o),
(215,313,q),
(197,321,o),
(185,338,qs),
(165,365,o),
(165,405,qs),
(165,452,o),
(197,504,qs),
(231,562,o),
(286,599,qs),
(349,642,o),
(420,642,qs),
(444,642,o),
(469,635,qs),
(521,622,o),
(606,545,o),
(654,419,o),
(654,341,qs),
(654,283,o),
(641,227,qs),
(637,214,l),
(738,144,l),
(633,145,l),
(633,116,l),
(633,115,l),
(633,105,l),
(726,24,l),
(697,10,o),
(678,-14,qs),
(650,-49,o),
(650,-134,o),
(674,-165,qs),
(692,-189,o),
(717,-202,qs),
(752,-221,o),
(793,-221,qs),
(832,-221,o),
(894,-189,o),
(930,-135,o),
(930,-103,qs),
(930,-77,o),
(904,-28,o),
(878,-10,q),
(768,86,l),
(888,86,l),
(888,115,l),
(888,116,l),
(888,127,l),
(735,232,l),
(746,286,o),
(746,341,qs),
(746,426,o),
(720,496,qs),
(692,569,o),
(582,669,o),
(504,689,qs),
(462,699,o),
(418,699,qs),
(309,699,o),
(219,638,qs),
(152,593,o),
(110,525,qs),
(73,462,o),
(73,405,qs),
(73,352,o),
(101,315,qs),
(112,299,o),
(127,287,q),
(113,277,o),
(102,263,qs),
(70,225,o),
(70,176,qs),
(70,145,o),
(84,117,qs),
(103,79,o),
(141,57,qs),
(184,31,o),
(243,31,qs),
(299,31,o),
(359,59,q),
(359,-12,l),
(451,-12,l),
(451,186,ls),
(452,200,o),
(457,214,qs),
(466,236,o),
(480,247,qs),
(487,253,o),
(492,254,q),
(499,252,o),
(506,245,qs),
(521,231,o),
(526,208,qs),
(529,196,o),
(529,183,qs),
(529,182,l),
(529,-9,l),
(621,-9,l),
(621,182,ls)
);
},
{
closed = 1;
nodes = (
(742,-62,o),
(760,-40,qs),
(769,-29,o),
(780,-23,q),
(805,-45,l),
(807,-47,l),
(810,-49,ls),
(822,-57,o),
(837,-86,o),
(837,-124,o),
(827,-140,qs),
(818,-154,o),
(806,-160,qs),
(799,-164,o),
(786,-163,o),
(767,-153,o),
(759,-142,qs),
(742,-120,o)
);
}
);
width = 957;
}
);
note = or_k_tta;
}
{
glyphname = or_n_da;
layers = (
{
backgroundImage = {
imagePath = "../../../../nda.png";
pos = (-29,0);
};
layerId = m01;
shapes = (
{
closed = 1;
nodes = (
(521,118,l),
(529,-11,l),
(586,-11,l),
(588,217,l),
(525,215,l)
);
},
{
closed = 1;
nodes = (
(525,97,l),
(518,134,l),
(496,96,l),
(501,93,l),
(516,96,l)
);
},
{
closed = 1;
nodes = (
(256,287,l),
(237,266,o),
(225,236,o),
(225,207,cs),
(225,124,o),
(309,66,o),
(404,66,cs),
(454,66,o),
(505,87,o),
(530,118,cs),
(556,150,o),
(588,167,o),
(588,211,cs),
(588,302,l),
(538,292,l),
(537,281,o),
(523,228,o),
(518,212,cs),
(502,160,o),
(478,120,o),
(409,120,cs),
(355,120,o),
(284,155,o),
(284,209,cs),
(283,223,o),
(282,238,o),
(284,251,c)
);
},
{
closed = 1;
nodes = (
(281,330,l),
(243,281,l),
(113,84,l),
(107,64,l),
(158,35,l),
(242,179,l),
(292,241,l),
(388,386,l),
(351,413,l)
);
},
{
closed = 1;
nodes = (
(208,14,o),
(223,44,o),
(213,71,cs),
(206,90,o),
(189,91,o),
(211,126,c),
(139,106,l),
(112,96,o),
(99,66,o),
(109,37,cs),
(119,9,o),
(153,-6,o),
(180,4,cs)
);
},
{
closed = 1;
nodes = (
(746,248,o),
(756,294,o),
(759,339,c),
(759,502,o),
(627,672,o),
(369,672,cs),
(160,672,o),
(16,456,o),
(89,305,cs),
(101,280,o),
(163,193,o),
(264,228,cs),
(284,235,l),
(275,289,l),
(248,282,ls),
(180,266,o),
(167,300,o),
(153,329,cs),
(102,434,o),
(204,616,o),
(369,616,cs),
(582,616,o),
(689,478,o),
(689,341,c),
(686,302,o),
(683,255,o),
(683,238,c),
(684,173,l),
(746,177,l),
(746,213,ls)
);
}
);
width = 829;
}
);
note = or_n_da;
}
{
glyphname = or_n_dha;
layers = (
{
layerId = m01;
shapes = (
{
ref = or_n_da;
},
{
closed = 1;
nodes = (
(225,582,l),
(193,534,l),
(650,222,l),
(685,265,l)
);
}
);
width = 829;
}
);
note = or_n_dha;
}
{
glyphname = or_ng_ga;
layers = (
{
backgroundImage = {
imagePath = "../../../../nga.png";
pos = (18,0);
scale = (3.4633,3.4633);
};
layerId = m01;
shapes = (
{
closed = 1;
nodes = (
);
},
{
closed = 1;
nodes = (
(609,17,l),
(668,17,l),
(668,646,l),
(604,646,l)
);
},
{
closed = 1;
nodes = (
(613,528,l),
(574,594,o),
(488,673,o),
(347,673,cs),
(169,673,o),
(62,539,o),
(62,424,cs),
(62,279,o),
(136,199,o),
(264,199,cs),
(270,199,l),
(276,252,l),
(268,252,ls),
(184,252,o),
(132,315,o),
(132,424,cs),
(132,517,o),
(215,617,o),
(347,617,cs),
(488,617,o),
(576,503,o),
(613,437,c)
);
},
{
closed = 1;
nodes = (
(213,53,o),
(178,82,o),
(178,126,cs),
(178,170,o),
(213,198,o),
(249,198,cs),
(283,198,o),
(315,169,o),
(315,125,cs),
(315,81,o),
(284,53,o),
(249,53,cs)
);
},
{
closed = 1;
nodes = (
(366,186,l),
(344,229,o),
(302,254,o),
(249,254,cs),
(175,254,o),
(111,203,o),
(111,129,cs),
(111,55,o),
(174,0,o),
(249,0,cs),
(301,0,o),
(343,28,o),
(366,71,c)
);
},
{
closed = 1;
nodes = (
(797,389,o),
(852,438,o),
(852,499,cs),
(852,559,o),
(797,608,o),
(726,608,cs),
(654,608,o),
(599,559,o),
(599,499,cs),
(599,438,o),
(654,389,o),
(726,389,cs)
);
},
{
closed = 1;
nodes = (
(693,445,o),
(669,467,o),
(669,499,cs),
(669,530,o),
(693,552,o),
(726,552,cs),
(758,552,o),
(782,530,o),
(782,499,cs),
(782,467,o),
(758,445,o),
(726,445,cs)
);
},
{
closed = 1;
nodes = (
(399,53,o),
(367,82,o),
(367,126,cs),
(367,170,o),
(399,198,o),
(435,198,cs),
(469,198,o),
(504,169,o),
(504,125,cs),
(504,81,o),
(470,53,o),
(435,53,cs)
);
},
{
closed = 1;
nodes = (
(316,71,l),
(339,28,o),
(382,0,o),
(435,0,cs),
(508,0,o),
(571,54,o),
(571,128,cs),
(571,202,o),
(509,254,o),
(435,254,cs),
(382,254,o),
(339,229,o),
(316,187,c)
);
}
);
width = 999;
}
);
note = or_ng_ga;
}
{
glyphname = or_ng_ka;
layers = (
{
layerId = m01;
shapes = (
{
closed = 1;
nodes = (
(468,694,qs),
(436,700,o),
(402,700,qs),
(323,700,o),
(173,631,o),
(126,568,qs),
(73,498,o),
(73,414,qs),
(73,337,o),
(118,268,qs),
(121,264,o),
(124,260,q),
(102,244,o),
(88,221,qs),
(70,192,o),
(70,161,qs),
(70,143,o),
(76,125,qs),
(95,69,o),
(157,46,qs),
(186,36,o),
(216,36,qs),
(262,36,o),
(303,59,q),
(338,39,o),
(383,39,qs),
(402,39,o),
(420,43,q),
(420,-8,l),
(512,-8,l),
(512,225,l),
(539,236,o),
(554,236,qs),
(561,236,o),
(569,230,q),
(575,227,o),
(585,209,o),
(586,198,q),
(586,-5,l),
(678,-5,l),
(678,198,l),
(678,199,ls),
(677,220,o),
(654,258,o),
(633,272,qs),
(599,293,o),
(554,293,qs),
(515,293,o),
(469,276,q),
(468,274,o),
(465,274,o),
(464,274,q),
(431,284,o),
(396,284,qs),
(350,284,o),
(309,269,q),
(270,290,o),
(224,290,qs),
(214,290,o),
(204,289,q),
(204,289,o),
(204,290,q),
(165,348,o),
(165,485,o),
(210,544,qs),
(247,593,o),
(305,620,qs),
(353,643,o),
(402,643,qs),
(421,643,o),
(440,639,qs),
(516,624,o),
(561,560,qs),
(597,509,o),
(597,446,qs),
(597,440,l),
(601,435,ls),
(633,389,o),
(694,379,qs),
(708,376,o),
(723,376,qs),
(775,376,o),
(814,403,qs),
(863,437,o),
(868,494,qs),
(868,499,o),
(868,504,qs),
(868,553,o),
(834,590,qs),
(789,637,o),
(717,637,qs),
(665,637,o),
(624,609,q),
(563,675,o)
);
},
{
closed = 1;
nodes = (
(689,453,q),
(688,500,o),
(668,543,q),
(678,561,o),
(694,572,qs),
(707,580,o),
(717,580,qs),
(737,580,o),
(754,561,qs),
(776,538,o),
(776,504,qs),
(776,501,o),
(776,497,qs),
(772,461,o),
(745,442,qs),
(734,434,o),
(723,434,qs),
(706,434,o)
);
},
{
closed = 1;
nodes = (
(371,227,o),
(400,227,qs),
(409,227,o),
(420,224,q),
(420,123,l),
(414,113,o),
(405,106,q),
(389,97,o),
(383,96,q),
(365,96,o),
(350,114,q),
(350,216,l)
);
},
{
closed = 1;
nodes = (
(249,105,o),
(225,94,o),
(211,94,o),
(203,96,q),
(177,106,o),
(166,137,qs),
(162,149,o),
(162,161,qs),
(162,181,o),
(174,200,qs),
(189,225,o),
(213,231,qs),
(219,232,o),
(224,232,qs),
(241,232,o),
(258,220,q),
(258,114,l)
);
}
);
width = 915;
}
);
note = or_ng_ka;
}
{
glyphname = or_ng_kha;
layers = (
{
layerId = m01;
shapes = (
{
closed = 1;
nodes = (
(175,148,qs),
(190,180,o),
(219,195,q),
(234,195,o),
(264,198,qs),
(275,199,o),
(277,199,q),
(276,61,l),
(267,42,o),
(235,16,o),
(220,16,qs),
(201,16,o),
(184,38,qs),
(164,64,o),
(164,100,qs),
(164,125,o)
);
},
{
closed = 1;
nodes = (
(420,200,o),
(440,188,qs),
(465,173,o),
(472,138,qs),
(474,127,o),
(474,116,qs),
(474,92,o),
(455,46,o),
(430,20,o),
(420,20,qs),
(410,20,o),
(379,43,o),
(368,61,q),
(369,202,l)
);
},
{
closed = 1;
nodes = (
(822,478,qs),
(814,468,o),
(805,462,qs),
(801,460,o),
(800,460,q),
(800,460,o),
(799,459,q),
(800,460,l),
(781,463,o),
(749,503,qs),
(728,529,o),
(710,564,q),
(723,586,o),
(741,604,qs),
(770,631,o),
(794,631,qs),
(799,631,o),
(806,628,q),
(823,618,o),
(833,593,qs),
(841,574,o),
(841,548,qs),
(841,505,o)
);
},
{
closed = 1;
nodes = (
(746,683,qs),
(724,677,o),
(705,666,q),
(705,692,l),
(612,692,l),
(612,485,l),
(594,479,o),
(575,479,qs),
(519,479,o),
(476,525,qs),
(429,573,o),
(429,643,qs),
(429,648,o),
(430,677,q),
(392,682,ls),
(375,684,o),
(358,684,qs),
(292,684,o),
(235,655,qs),
(155,614,o),
(111,525,qs),
(84,468,o),
(74,399,qs),
(70,373,o),
(70,350,qs),
(70,257,o),
(128,218,q),
(101,195,o),
(72,134,o),
(72,100,qs),
(72,81,o),
(76,64,qs),
(84,35,o),
(117,-8,o),
(140,-21,qs),
(175,-41,o),
(220,-41,qs),
(280,-41,o),
(324,-6,q),
(367,-37,o),
(421,-37,qs),
(440,-37,o),
(458,-33,qs),
(525,-16,o),
(554,54,qs),
(567,84,o),
(567,116,qs),
(567,131,o),
(564,145,qs),
(552,200,o),
(504,229,qs),
(452,261,o),
(336,261,qs),
(309,261,o),
(225,252,o),
(214,252,qs),
(206,252,o),
(200,255,qs),
(186,262,o),
(165,304,o),
(163,335,qs),
(162,342,o),
(162,370,o),
(166,394,qs),
(175,457,o),
(200,508,qs),
(235,581,o),
(294,611,qs),
(315,621,o),
(337,625,q),
(344,550,o),
(396,495,qs),
(429,461,o),
(521,422,o),
(577,422,qs),
(595,422,o),
(612,424,q),
(612,-9,l),
(705,-9,l),
(705,437,l),
(710,432,o),
(716,428,qs),
(754,402,o),
(800,402,qs),
(838,402,o),
(869,420,qs),
(891,434,o),
(906,454,qs),
(934,492,o),
(934,548,qs),
(934,581,o),
(923,608,qs),
(906,650,o),
(866,672,qs),
(834,689,o),
(793,689,qs),
(769,689,o)
);
}
);
width = 855;
}
);
note = or_ng_kha;
}
{
glyphname = or_nn_nna_reph;
layers = (
{
layerId = m01;
shapes = (
{
closed = 1;
nodes = (
(389,239,o),
(397,233,q),
(368,179,o),
(298,166,qs),
(276,162,o),
(256,162,qs),
(235,162,o),
(214,168,qs),
(167,183,o),
(144,224,qs),
(128,252,o),
(128,285,qs),
(128,307,o),
(135,329,q),
(373,246,l)
);
},
{
closed = 1;
nodes = (
(475,788,o),
(488,813,qs),
(505,845,o),
(539,861,qs),
(566,875,o),
(599,875,q),
(599,875,l),
(640,874,o),
(726,829,o),
(754,787,qs),
(770,763,l),
(839,810,l),
(802,864,o),
(675,932,o),
(599,932,qs),
(533,932,o),
(426,879,o),
(401,831,qs),
(383,797,o),
(383,760,qs),
(383,746,o),
(385,733,q),
(379,734,o),
(372,734,qs),
(351,734,o),
(331,730,qs),
(272,719,o),
(193,640,o),
(193,585,qs),
(193,537,o),
(226,500,qs),
(229,497,o),
(232,495,q),
(132,475,o),
(76,400,qs),
(36,347,o),
(36,285,qs),
(36,243,o),
(57,205,qs),
(75,173,o),
(106,150,q),
(73,104,o),
(73,48,qs),
(73,-7,o),
(104,-57,qs),
(140,-116,o),
(209,-152,qs),
(299,-199,o),
(447,-199,qs),
(460,-199,o),
(475,-199,qs),
(558,-197,o),
(605,-179,qs),
(642,-165,o),
(693,-118,o),
(703,-86,qs),
(709,-70,o),
(709,-37,o),
(704,-22,qs),
(692,14,o),
(657,34,qs),
(636,46,o),
(608,50,q),
(642,92,o),
(642,141,qs),
(642,179,o),
(621,210,q),
(621,210,o),
(621,210,q),
(621,210,l),
(621,624,l),
(490,704,l),
(475,730,o)
);
},
{
closed = 1;
nodes = (
(465,272,qs),
(445,285,o),
(421,295,q),
(166,384,l),
(216,443,o),
(297,443,qs),
(348,443,o),
(395,414,qs),
(449,381,l),
(472,426,l),
(474,431,l),
(481,446,l),
(464,458,ls),
(451,468,o),
(418,483,o),
(371,496,qs),
(325,509,o),
(306,529,qs),
(285,553,o),
(285,585,qs),
(285,623,o),
(312,651,qs),
(337,676,o),
(376,676,qs),
(387,676,o),
(403,671,qs),
(431,662,o),
(457,639,qs),
(509,594,o),
(527,526,qs),
(529,515,l),
(529,263,l),
(518,265,o),
(507,265,qs),
(492,265,o),
(477,262,q),
(470,268,o)
);
},
{
closed = 1;
nodes = (
(350,102,ls),
(377,76,o),
(420,76,qs),
(457,76,o),
(483,97,qs),
(499,110,o),
(506,128,qs),
(510,138,o),
(510,160,o),
(507,169,qs),
(501,187,o),
(486,200,q),
(498,207,o),
(508,207,qs),
(510,207,o),
(514,206,qs),
(526,201,o),
(536,187,qs),
(550,167,o),
(550,141,qs),
(550,100,o),
(518,68,qs),
(496,45,o),
(468,39,qs),
(430,30,l),
(439,5,l),
(443,-6,l),
(459,-49,l),
(515,-23,ls),
(540,-12,o),
(587,-4,o),
(595,-9,qs),
(607,-16,o),
(613,-34,qs),
(616,-43,o),
(616,-64,o),
(613,-75,qs),
(607,-95,o),
(577,-122,o),
(558,-129,qs),
(526,-141,o),
(447,-141,qs),
(333,-141,o),
(268,-108,qs),
(217,-81,o),
(190,-36,qs),
(165,4,o),
(165,49,qs),
(165,84,o),
(182,114,q),
(218,104,o),
(258,104,qs),
(291,104,o),
(325,111,qs),
(334,112,o),
(342,115,q),
(342,109,l)
);
}
);
width = 754;
}
);
note = or_nn_nna_ref;
}
{
glyphname = or_ny_cha;
layers = (
{
layerId = m01;
shapes = (
{
closed = 1;
nodes = (
(436,806,qs),
(412,816,o),
(354,816,o),
(328,805,qs),
(287,787,o),
(270,749,qs),
(263,733,o),
(261,715,q),
(353,707,l),
(354,723,o),
(359,733,qs),
(367,751,o),
(381,757,qs),
(383,758,o),
(384,758,qs),
(395,755,o),
(406,738,qs),
(415,722,o),
(423,677,o),
(422,656,q),
(417,623,l),
(413,604,l),
(497,575,l),
(510,614,l),
(519,645,l),
(533,667,o),
(555,679,qs),
(572,688,o),
(587,688,qs),
(604,688,o),
(628,667,o),
(638,642,o),
(638,630,qs),
(638,604,o),
(619,583,qs),
(578,535,o),
(450,535,qs),
(371,535,o),
(331,546,qs),
(276,560,o),
(218,634,o),
(218,682,qs),
(218,698,o),
(222,713,q),
(133,734,l),
(130,721,ls),
(126,702,o),
(126,682,qs),
(126,620,o),
(164,572,qs),
(209,516,o),
(294,493,qs),
(352,477,o),
(450,477,qs),
(518,477,o),
(570,488,q),
(570,325,l),
(523,272,o),
(473,229,qs),
(421,184,o),
(388,171,qs),
(369,164,o),
(355,164,qs),
(342,164,o),
(315,177,o),
(295,207,o),
(292,224,q),
(370,296,o),
(370,361,qs),
(370,385,o),
(361,405,qs),
(345,437,o),
(308,454,qs),
(279,468,o),
(244,468,qs),
(190,468,o),
(149,436,qs),
(124,417,o),
(108,389,qs),
(86,352,o),
(86,308,qs),
(86,295,o),
(90,273,q),
(180,288,l),
(178,298,o),
(178,308,qs),
(178,342,o),
(194,370,qs),
(205,388,o),
(234,410,o),
(246,410,qs),
(248,410,o),
(253,408,qs),
(265,402,o),
(278,376,o),
(278,361,qs),
(278,326,o),
(242,284,qs),
(226,265,o),
(207,249,qs),
(197,240,l),
(198,230,ls),
(201,198,o),
(239,141,o),
(310,106,o),
(396,106,o),
(436,122,qs),
(485,141,o),
(544,192,qs),
(557,204,o),
(570,216,q),
(570,111,l),
(506,108,o),
(454,61,q),
(404,85,o),
(324,88,qs),
(310,89,o),
(226,91,o),
(201,95,qs),
(161,101,o),
(123,118,qs),
(96,130,l),
(70,71,l),
(128,45,o),
(192,37,q),
(177,25,o),
(161,-7,o),
(161,-39,o),
(165,-52,qs),
(176,-82,o),
(205,-102,qs),
(241,-127,o),
(292,-127,qs),
(321,-127,o),
(349,-118,qs),
(405,-101,o),
(460,-45,q),
(475,-65,o),
(488,-77,qs),
(509,-97,o),
(563,-119,o),
(595,-119,qs),
(639,-119,o),
(670,-99,qs),
(697,-81,o),
(722,-34,o),
(722,-8,qs),
(722,3,o),
(720,14,qs),
(711,51,o),
(680,77,qs),
(672,84,o),
(663,90,q),
(663,523,l),
(685,538,o),
(701,555,qs),
(730,589,o),
(730,630,qs),
(730,649,o),
(723,667,qs),
(713,692,o),
(692,710,qs),
(651,746,o),
(587,746,qs),
(544,746,o),
(505,728,q),
(488,784,o)
);
},
{
closed = 1;
nodes = (
(579,53,qs),
(593,53,o),
(607,42,qs),
(623,28,o),
(628,6,qs),
(630,-1,o),
(630,-8,qs),
(630,-25,o),
(616,-51,o),
(606,-57,qs),
(600,-61,o),
(595,-61,o),
(591,-61,o),
(575,-55,o),
(554,-35,o),
(523,7,o),
(516,15,q),
(553,53,o)
);
},
{
closed = 1;
nodes = (
(255,33,o),
(305,32,o),
(317,31,qs),
(354,29,o),
(394,18,o),
(406,11,q),
(381,-17,o),
(365,-31,qs),
(322,-69,o),
(291,-69,qs),
(282,-69,o),
(273,-63,qs),
(261,-54,o),
(256,-40,qs),
(253,-33,o),
(253,-16,o),
(260,-1,o),
(266,3,q),
(245,33,l)
);
}
);
width = 749;
}
);
note = or_ny_cha;
}
{
glyphname = or_r_iikaar;
layers = (
{
hints = (
{
name = _corner.tailBottom;
origin = (2,7);
type = Corner;
}
);
layerId = m01;
shapes = (
{
closed = 1;
nodes = (
(186,219,o),
(257,214,c),
(232,179,o),
(234,157,o),
(234,141,cs),
(234,62,o),
(305,0,o),
(395,0,cs),
(499,0,o),
(565,54,o),
(565,141,cs),
(565,223,o),
(495,281,o),
(395,281,cs),
(352,281,o),
(320,272,o),
(275,271,cs),
(223,270,o),
(140,331,o),
(140,408,cs),
(140,525,o),
(210,615,o),
(330,615,cs),
(442,615,o),
(489,497,o),
(492,435,c),
(548,435,l),
(554,518,o),
(615,603,o),
(650,608,cs),
(665,610,o),
(676,600,o),
(679,575,c),
(679,17,l),
(749,17,l),
(749,577,l),
(749,640,o),
(686,675,o),
(624,660,cs),
(549,644,o),
(496,508,o),
(494,485,c),
(548,485,l),
(547,513,o),
(496,671,o),
(330,671,cs),
(169,671,o),
(70,554,o),
(70,408,cs),
(70,284,o)
);
},
{
closed = 1;
nodes = (
(303,194,o),
(341,232,o),
(395,232,cs),
(457,232,o),
(500,194,o),
(500,141,cs),
(500,87,o),
(457,49,o),
(395,49,cs),
(341,49,o),
(303,87,o),
(303,141,cs)
);
},
{
closed = 1;
nodes = (
(484,85,l),
(477,74,o),
(464,65,o),
(456,53,cs),
(435,22,o),
(442,-14,o),
(467,-30,c),
(694,-157,l),
(728,-109,l),
(511,17,l),
(511,22,ls),
(511,23,o),
(521,34,o),
(535,53,c)
);
}
);
width = 819;
}
);
note = or_r_iikaar;
}
{
category = Mark;
glyphname = or_reph;
layers = (
{
layerId = m01;
shapes = (
{
closed = 1;
nodes = (
(263,1156,o),
(246,1143,o),
(148,1112,cs),
(20,1071,o),
(-360,1061,o),
(-360,902,cs),
(-360,789,o),
(-280,742,o),
(-193,703,cs),
(-167,691,l),
(-138,743,l),
(-165,755,ls),
(-238,788,o),
(-290,820,o),
(-290,902,cs),
(-290,1004,o),
(35,1015,o),
(170,1058,cs),
(284,1095,o),
(305,1110,o),
(338,1125,cs),
(365,1137,l),
(336,1189,l),
(310,1177,ls)
);
}
);
width = 0;
}
);
note = or_reph;
script = oriya;
subCategory = Nonspacing;
}
{
glyphname = or_sh_ca;
layers = (
{
layerId = m01;
shapes = (
{
closed = 1;
nodes = (
(478,-141,o),
(486,-125,qs),
(490,-117,o),
(498,-112,qs),
(502,-109,o),
(505,-108,q),
(505,-107,l),
(517,-104,o),
(522,-104,qs),
(530,-104,o),
(538,-112,qs),
(547,-121,o),
(547,-134,qs),
(547,-142,o),
(537,-160,o),
(518,-169,o),
(511,-169,qs),
(492,-169,o)
);
},
{
closed = 1;
nodes = (
(396,-157,qs),
(398,-164,o),
(401,-171,q),
(410,-186,o),
(423,-197,qs),
(440,-209,o),
(459,-216,qs),
(471,-220,o),
(483,-222,qs),
(496,-224,o),
(510,-224,qs),
(528,-223,o),
(546,-220,qs),
(563,-216,o),
(579,-209,qs),
(594,-202,o),
(607,-191,qs),
(618,-181,o),
(626,-168,qs),
(630,-160,o),
(633,-151,qs),
(635,-142,o),
(635,-134,qs),
(634,-120,o),
(629,-106,qs),
(623,-94,o),
(613,-83,qs),
(609,-79,o),
(605,-76,qs),
(600,-72,o),
(595,-69,qs),
(579,-59,o),
(562,-54,q),
(542,-51,o),
(522,-49,qs),
(515,-48,o),
(508,-49,qs),
(501,-49,o),
(494,-51,q),
(486,-55,o),
(478,-58,qs),
(473,-59,o),
(469,-59,qs),
(465,-59,o),
(460,-59,qs),
(457,-59,o),
(455,-59,q),
(452,-60,o),
(450,-61,qs),
(448,-62,o),
(447,-63,q),
(445,-63,o),
(443,-62,q),
(442,-62,o),
(440,-59,o),
(439,-58,qs),
(437,-55,o),
(435,-51,qs),
(434,-48,o),
(433,-44,q),
(433,-39,o),
(432,-31,o),
(433,-22,o),
(434,-18,qs),
(438,2,o),
(445,20,q),
(454,37,o),
(466,51,qs),
(476,62,o),
(487,71,q),
(510,85,o),
(536,91,q),
(542,91,o),
(547,92,q),
(554,91,o),
(560,90,qs),
(567,89,o),
(574,87,q),
(590,80,o),
(603,71,qs),
(617,60,o),
(628,46,qs),
(641,26,o),
(649,3,q),
(655,-22,o),
(656,-48,qs),
(655,-69,o),
(652,-89,qs),
(647,-109,o),
(639,-128,q),
(715,-162,l),
(724,-143,ls),
(733,-120,o),
(739,-97,qs),
(743,-73,o),
(744,-48,qs),
(743,-16,o),
(735,15,q),
(724,43,o),
(708,69,q),
(699,80,o),
(690,90,qs),
(680,99,o),
(670,107,q),
(670,735,l),
(582,735,l),
(582,623,l),
(579,625,o),
(574,629,o),
(572,631,q),
(539,653,o),
(503,669,q),
(465,682,o),
(425,689,qs),
(415,690,o),
(404,691,qs),
(394,692,o),
(384,692,qs),
(358,691,o),
(332,688,q),
(307,682,o),
(283,674,qs),
(262,665,o),
(241,652,qs),
(224,639,o),
(208,623,q),
(193,604,o),
(182,583,q),
(175,561,o),
(174,538,qs),
(175,522,o),
(178,506,qs),
(183,490,o),
(192,476,qs),
(198,467,l),
(173,457,o),
(150,445,qs),
(128,433,o),
(108,417,qs),
(80,392,o),
(59,361,q),
(46,332,o),
(43,300,qs),
(43,292,o),
(44,283,qs),
(46,273,o),
(49,263,q),
(56,257,ls),
(71,246,o),
(87,237,qs),
(104,228,o),
(121,221,qs),
(137,216,o),
(154,212,qs),
(172,208,o),
(190,206,q),
(179,189,o),
(171,170,q),
(166,151,o),
(165,131,qs),
(165,120,o),
(167,110,qs),
(169,99,o),
(172,89,qs),
(178,73,o),
(187,59,qs),
(197,45,o),
(209,33,q),
(235,12,o),
(265,-2,q),
(299,-12,o),
(335,-13,qs),
(338,-13,o),
(343,-13,o),
(346,-13,q),
(345,-18,o),
(345,-23,qs),
(344,-28,o),
(344,-33,qs),
(345,-42,o),
(346,-51,qs),
(348,-59,o),
(351,-67,q),
(359,-81,o),
(370,-93,q),
(384,-104,o),
(401,-111,q),
(398,-118,o),
(396,-126,qs),
(394,-134,o),
(394,-141,qs),
(394,-149,o)
);
},
{
closed = 1;
nodes = (
(508,593,qs),
(555,557,o),
(580,500,qs),
(582,496,l),
(582,144,l),
(565,147,o),
(549,147,qs),
(547,147,o),
(545,147,q),
(545,186,o),
(512,217,qs),
(464,263,o),
(367,263,qs),
(346,263,o),
(299,260,qs),
(287,259,o),
(277,259,q),
(276,262,l),
(267,258,l),
(253,258,o),
(244,258,qs),
(197,258,o),
(166,269,qs),
(148,275,o),
(132,286,q),
(131,293,o),
(131,300,qs),
(131,346,o),
(177,384,qs),
(233,429,o),
(303,429,qs),
(326,429,o),
(349,423,qs),
(401,409,l),
(409,444,l),
(412,457,l),
(418,481,l),
(267,509,l),
(262,523,o),
(262,538,qs),
(262,570,o),
(285,597,qs),
(303,617,o),
(355,637,o),
(384,637,qs),
(449,637,o)
);
},
{
closed = 1;
nodes = (
(335,42,qs),
(306,42,o),
(282,64,qs),
(266,79,o),
(258,101,qs),
(253,115,o),
(253,131,qs),
(253,162,o),
(271,184,qs),
(283,198,o),
(296,205,q),
(303,205,o),
(310,205,qs),
(350,208,o),
(367,208,qs),
(398,208,o),
(429,196,o),
(439,187,qs),
(457,170,o),
(457,146,qs),
(457,136,o),
(454,127,q),
(417,110,o),
(390,80,qs),
(378,66,o),
(368,50,q),
(352,42,o)
);
}
);
width = 770;
}
);
note = or_sh_ca;
}
{
glyphname = or_sh_cha;
layers = (
{
layerId = m01;
shapes = (
{
closed = 1;
nodes = (
(273,68,q),
(247,73,o),
(232,98,qs),
(220,116,o),
(220,163,o),
(231,185,qs),
(246,217,o),
(275,231,q),
(273,236,l),
(315,235,o),
(336,226,qs),
(361,216,o),
(372,194,qs),
(380,180,o),
(380,141,o),
(370,122,qs),
(354,92,o),
(318,76,qs),
(299,68,o),
(283,68,qs),
(278,68,o)
);
},
{
closed = 1;
nodes = (
(212,485,qs),
(183,485,o),
(157,480,qs),
(97,467,o),
(62,429,qs),
(41,405,o),
(34,374,qs),
(33,370,l),
(34,366,ls),
(50,297,o),
(116,263,qs),
(141,250,o),
(172,244,q),
(154,225,o),
(142,202,qs),
(127,172,o),
(128,105,o),
(146,76,qs),
(178,26,o),
(247,13,qs),
(264,10,o),
(283,10,qs),
(328,10,o),
(371,29,qs),
(432,55,o),
(457,104,qs),
(472,132,o),
(472,162,qs),
(472,189,o),
(460,212,qs),
(439,253,o),
(387,274,qs),
(349,290,o),
(294,293,qs),
(282,293,o),
(234,295,o),
(223,296,qs),
(193,298,o),
(159,315,o),
(132,349,o),
(126,370,q),
(131,388,o),
(143,401,qs),
(167,428,o),
(212,428,qs),
(226,428,o),
(243,425,qs),
(288,420,o),
(332,405,qs),
(381,387,l),
(398,421,l),
(400,425,l),
(409,442,l),
(306,503,l),
(286,522,o),
(286,552,qs),
(286,562,o),
(290,573,qs),
(297,593,o),
(329,618,o),
(378,635,o),
(408,635,qs),
(471,635,o),
(526,594,qs),
(575,558,o),
(599,500,qs),
(601,496,l),
(601,3,l),
(561,-3,o),
(531,-28,q),
(489,6,o),
(428,6,qs),
(363,6,o),
(321,-30,q),
(264,-15,o),
(204,-15,qs),
(202,-15,o),
(201,-15,q),
(201,-73,l),
(202,-73,ls),
(203,-73,o),
(204,-73,qs),
(244,-73,o),
(283,-82,q),
(277,-100,o),
(277,-120,qs),
(277,-177,o),
(326,-214,qs),
(367,-246,o),
(424,-246,qs),
(463,-246,o),
(497,-229,qs),
(512,-222,o),
(524,-212,q),
(564,-245,o),
(621,-245,qs),
(637,-245,o),
(651,-242,qs),
(709,-232,o),
(742,-190,qs),
(768,-156,o),
(768,-70,o),
(737,-37,qs),
(718,-17,o),
(693,-6,q),
(693,687,l),
(601,687,l),
(601,628,l),
(599,630,o),
(597,631,q),
(531,681,o),
(446,691,qs),
(427,693,o),
(408,693,qs),
(354,693,o),
(306,676,qs),
(268,663,o),
(242,642,qs),
(212,618,o),
(200,586,qs),
(194,569,o),
(194,551,qs),
(194,514,o),
(217,485,q),
(214,485,o)
);
},
{
closed = 1;
nodes = (
(589,-172,o),
(575,-142,o),
(575,-126,qs),
(575,-124,o),
(575,-120,o),
(575,-118,qs),
(578,-92,o),
(612,-52,o),
(630,-52,qs),
(644,-52,o),
(657,-66,qs),
(676,-85,o),
(676,-115,qs),
(676,-143,o),
(644,-184,o),
(625,-187,qs),
(623,-187,o),
(621,-187,qs),
(612,-187,o)
);
},
{
closed = 1;
nodes = (
(369,-87,o),
(393,-66,qs),
(408,-52,o),
(427,-52,q),
(427,-52,o),
(428,-52,qs),
(442,-52,o),
(455,-61,qs),
(476,-75,o),
(481,-100,qs),
(483,-109,o),
(483,-120,q),
(480,-141,o),
(457,-176,o),
(441,-184,qs),
(432,-188,o),
(424,-188,qs),
(411,-188,o),
(397,-178,qs),
(369,-156,o)
);
}
);
width = 775;
}
);
note = or_sh_cha;
}
{
glyphname = or_sh_r_ii;
layers = (
{
layerId = m01;
shapes = (
{
closed = 1;
nodes = (
(285,182,qs),
(298,199,o),
(313,205,q),
(310,211,l),
(314,211,o),
(318,211,qs),
(367,211,o),
(392,192,qs),
(407,180,o),
(427,142,o),
(427,96,o),
(414,75,qs),
(402,55,o),
(364,30,o),
(344,30,qs),
(326,30,o),
(308,41,qs),
(284,56,o),
(272,84,qs),
(264,102,o),
(264,123,qs),
(264,157,o)
);
},
{
closed = 1;
nodes = (
(183,69,qs),
(201,26,o),
(287,-28,o),
(403,-28,o),
(451,3,qs),
(482,24,o),
(519,86,o),
(519,121,qs),
(519,186,o),
(464,228,qs),
(429,255,o),
(376,264,qs),
(350,268,o),
(301,268,o),
(260,266,qs),
(237,265,o),
(224,265,qs),
(194,265,o),
(159,276,o),
(145,286,q),
(143,293,o),
(143,300,qs),
(143,345,o),
(190,383,qs),
(245,428,o),
(313,428,qs),
(336,428,o),
(358,422,qs),
(413,408,l),
(422,444,l),
(425,457,l),
(431,482,l),
(297,504,l),
(277,524,o),
(277,556,qs),
(277,571,o),
(284,587,qs),
(295,612,o),
(342,641,o),
(371,641,qs),
(389,641,o),
(409,636,qs),
(452,625,o),
(490,596,qs),
(542,557,o),
(568,499,qs),
(570,493,l),
(581,28,l),
(579,1,o),
(566,-62,o),
(534,-117,o),
(492,-141,o),
(462,-143,qs),
(456,-144,o),
(434,-144,o),
(400,-141,qs),
(292,-132,o),
(188,-132,qs),
(128,-132,o),
(68,-135,q),
(70,-192,l),
(131,-190,o),
(188,-190,qs),
(286,-190,o),
(406,-199,qs),
(428,-201,o),
(450,-201,qs),
(629,-201,o),
(665,-33,qs),
(672,-3,o),
(673,28,qs),
(673,29,l),
(661,556,l),
(666,640,l),
(677,672,o),
(699,695,qs),
(734,731,o),
(779,731,q),
(779,-172,l),
(871,-172,l),
(871,759,l),
(855,768,l),
(832,780,l),
(823,785,l),
(796,789,o),
(780,789,qs),
(682,789,o),
(620,724,qs),
(588,692,o),
(574,647,q),
(573,624,l),
(567,628,o),
(561,633,qs),
(508,673,o),
(444,689,qs),
(406,698,o),
(371,698,qs),
(304,698,o),
(254,668,qs),
(213,642,o),
(195,602,qs),
(185,579,o),
(185,535,o),
(191,518,qs),
(200,492,o),
(221,472,q),
(161,455,o),
(116,418,qs),
(51,365,o),
(51,300,qs),
(51,285,o),
(57,263,q),
(64,257,ls),
(118,212,o),
(201,208,q),
(172,170,o),
(172,123,qs),
(172,95,o)
);
}
);
width = 955;
}
);
note = or_sh_r_ii;
}
{
glyphname = or_ss_nna;
layers = (
{
layerId = m01;
shapes = (
{
closed = 1;
nodes = (
(114,564,o),
(110,557,qs),
(92,529,o),
(92,498,qs),
(92,465,o),
(130,404,o),
(168,380,qs),
(198,362,o),
(242,348,q),
(216,341,o),
(198,334,qs),
(162,321,o),
(138,301,qs),
(93,264,o),
(93,213,qs),
(93,187,o),
(105,162,qs),
(122,125,o),
(161,97,qs),
(184,81,o),
(210,70,q),
(202,38,o),
(202,3,qs),
(202,-90,o),
(256,-165,qs),
(318,-251,o),
(424,-280,qs),
(464,-290,o),
(507,-290,qs),
(581,-290,o),
(645,-260,qs),
(690,-237,o),
(734,-177,o),
(734,-145,qs),
(734,-134,o),
(731,-123,qs),
(724,-98,o),
(704,-80,qs),
(696,-74,o),
(688,-69,q),
(727,-31,o),
(727,21,qs),
(727,42,o),
(720,61,qs),
(715,76,l),
(693,81,ls),
(688,82,o),
(682,84,q),
(682,239,l),
(701,227,l),
(736,286,l),
(682,318,l),
(682,692,l),
(590,692,l),
(590,599,l),
(560,614,o),
(527,625,qs),
(448,652,o),
(363,652,qs),
(299,652,o),
(238,637,qs),
(204,628,o),
(178,615,q),
(105,658,l),
(70,599,l),
(119,570,l)
);
},
{
closed = 1;
nodes = (
(590,519,q),
(590,372,l),
(247,575,l),
(260,580,o),
(277,584,qs),
(317,595,o),
(363,595,qs),
(489,595,o)
);
},
{
closed = 1;
nodes = (
(590,243,l),
(539,193,o),
(478,157,qs),
(393,107,o),
(324,107,qs),
(271,107,o),
(231,135,qs),
(205,154,o),
(194,178,qs),
(186,195,o),
(186,224,o),
(189,234,qs),
(195,252,o),
(225,277,o),
(259,290,o),
(329,307,o),
(355,317,o),
(382,329,q),
(382,344,l),
(382,351,l),
(382,368,l),
(342,382,o),
(314,390,qs),
(256,407,o),
(209,436,o),
(197,456,qs),
(184,476,o),
(184,497,qs),
(184,514,o),
(191,528,q),
(590,293,l)
);
},
{
closed = 1;
nodes = (
(568,85,o),
(546,78,qs),
(460,53,o),
(412,-18,q),
(481,-65,l),
(498,-40,ls),
(532,10,o),
(586,26,qs),
(605,32,o),
(624,32,qs),
(629,32,o),
(634,32,q),
(635,26,o),
(635,21,qs),
(635,-32,o),
(578,-60,qs),
(546,-76,o),
(515,-81,q),
(526,-140,l),
(541,-137,ls),
(585,-129,o),
(624,-110,q),
(626,-111,o),
(629,-114,qs),
(642,-125,o),
(642,-145,qs),
(642,-152,o),
(640,-158,qs),
(632,-193,o),
(588,-214,qs),
(549,-233,o),
(507,-233,qs),
(483,-233,o),
(460,-227,qs),
(387,-207,o),
(294,-78,o),
(294,3,qs),
(294,27,o),
(299,50,q),
(311,49,o),
(324,49,qs),
(429,49,o),
(541,115,qs),
(566,130,o),
(590,147,q),
(590,88,l)
);
}
);
width = 767;
}
);
note = or_ss_nna;
}
{
glyphname = or_t_ikaar;
layers = (
{
layerId = m01;
shapes = (
{
closed = 1;
nodes = (
(183,387,qs),
(223,429,o),
(276,436,qs),
(316,442,l),
(311,468,l),
(310,473,l),
(304,502,l),
(258,498,ls),
(230,496,o),
(214,500,qs),
(205,502,o),
(188,515,o),
(179,536,o),
(179,546,qs),
(179,566,o),
(192,582,qs),
(202,594,o),
(219,605,qs),
(287,653,o),
(361,653,qs),
(420,653,o),
(525,590,o),
(563,529,qs),
(597,473,o),
(613,398,qs),
(625,342,o),
(625,284,qs),
(625,170,o),
(581,67,q),
(662,33,l),
(670,52,ls),
(718,162,o),
(718,284,qs),
(718,346,o),
(705,405,qs),
(687,487,o),
(649,549,qs),
(604,623,o),
(535,664,qs),
(457,710,o),
(361,710,qs),
(245,710,o),
(150,644,qs),
(126,627,o),
(112,610,qs),
(87,580,o),
(87,546,qs),
(87,529,o),
(93,513,qs),
(109,475,o),
(152,456,q),
(125,439,o),
(104,417,qs),
(59,370,o),
(43,308,qs),
(41,299,l),
(49,290,ls),
(82,252,o),
(134,236,qs),
(159,228,o),
(186,227,q),
(165,198,o),
(153,171,qs),
(142,146,o),
(142,119,qs),
(142,75,o),
(173,39,qs),
(203,5,o),
(251,-11,qs),
(282,-20,o),
(316,-20,qs),
(378,-20,o),
(436,10,qs),
(486,36,o),
(550,117,o),
(556,166,qs),
(558,176,o),
(558,186,qs),
(558,235,o),
(522,263,qs),
(493,287,o),
(449,287,qs),
(438,287,o),
(427,285,qs),
(383,278,o),
(327,214,o),
(327,165,qs),
(327,151,o),
(331,135,qs),
(340,88,o),
(372,52,q),
(342,37,o),
(316,37,qs),
(279,37,o),
(255,66,qs),
(235,90,o),
(235,119,qs),
(235,138,o),
(251,177,o),
(267,199,qs),
(303,248,o),
(352,283,qs),
(371,296,l),
(328,361,l),
(279,323,ls),
(262,309,o),
(244,299,qs),
(217,284,o),
(196,284,qs),
(165,284,o),
(137,310,q),
(151,354,o)
);
},
{
closed = 1;
nodes = (
(449,228,q),
(458,222,o),
(463,205,qs),
(465,196,o),
(465,179,o),
(464,171,qs),
(460,135,o),
(436,104,q),
(426,122,o),
(419,155,o),
(419,166,qs),
(419,199,o),
(437,219,qs),
(442,225,o)
);
}
);
width = 767;
}
);
note = or_t_ikaar;
}
{
glyphname = or_t_s_na;
layers = (
{
layerId = m01;
shapes = (
{
closed = 1;
nodes = (
(586,357,l),
(589,584,o),
(504,671,o),
(334,671,cs),
(136,671,o),
(60,579,o),
(60,453,cs),
(60,397,o),
(78,327,o),
(132,292,cs),
(171,266,o),
(246,247,o),
(312,256,c),
(317,268,l),
(132,144,l),
(184,72,l),
(197,128,l),
(501,280,l),
(484,325,l),
(424,308,o),
(367,292,o),
(332,295,cs),
(233,302,o),
(125,331,o),
(125,431,cs),
(125,568,o),
(219,610,o),
(334,610,cs),
(457,610,o),
(538,546,o),
(538,394,c)
);
},
{
closed = 1;
nodes = (
(531,575,l),
(537,7,l),
(595,7,l),
(595,672,l),
(539,672,l)
);
},
{
closed = 1;
nodes = (
(521,597,l),
(527,586,l),
(545,588,l),
(533,608,l)
);
},
{
closed = 1;
nodes = (
(270,238,l),
(295,243,l),
(297,258,l),
(267,254,l)
);
},
{
closed = 1;
nodes = (
(640,-53,l),
(638,-42,l),
(547,26,l),
(132,144,l),
(110,83,l)
);
},
{
closed = 1;
nodes = (
(213,136,l),
(191,148,l),
(174,129,l),
(205,122,l)
);
},
{
closed = 1;
nodes = (
(460,-82,l),
(336,-46,o),
(248,-20,o),
(97,21,c),
(64,43,o),
(61,59,o),
(57,77,c),
(100,200,l),
(66,218,l),
(0,86,l),
(0,37,o),
(45,-17,o),
(103,-40,c),
(331,-101,o),
(368,-109,o),
(419,-123,c)
);
},
{
closed = 1;
nodes = (
(434,-313,o),
(455,-278,o),
(446,-244,cs),
(443,-235,o),
(439,-227,o),
(434,-221,c),
(422,-202,o),
(403,-182,o),
(445,-141,cs),
(484,-104,o),
(555,-57,o),
(584,-50,c),
(588,-308,l),
(648,-308,l),
(648,-16,l),
(576,17,l),
(539,-15,l),
(500,-32,o),
(465,-53,o),
(446,-70,cs),
(411,-97,o),
(379,-127,o),
(357,-156,cs),
(335,-184,o),
(310,-231,o),
(323,-278,cs),
(332,-311,o),
(366,-331,o),
(400,-322,cs)
);
}
);
width = 650;
}
);
}
{
glyphname = or_t_sa;
layers = (
{
layerId = m01;
shapes = (
{
closed = 1;
nodes = (
(665,357,l),
(667,529,o),
(556,664,o),
(413,664,cs),
(260,664,o),
(139,571,o),
(139,453,cs),
(139,389,o),
(171,318,o),
(211,292,cs),
(254,263,o),
(343,247,o),
(414,256,c),
(419,268,l),
(221,157,l),
(263,72,l),
(276,128,l),
(580,280,l),
(563,325,l),
(503,308,o),
(446,299,o),
(411,302,cs),
(284,311,o),
(204,362,o),
(204,435,cs),
(204,543,o),
(285,603,o),
(413,603,cs),
(538,603,o),
(617,457,o),
(617,324,c)
);
},
{
closed = 1;
nodes = (
(610,575,l),
(616,7,l),
(674,7,l),
(674,672,l),
(618,672,l)
);
},
{
closed = 1;
nodes = (
(600,559,l),
(606,548,l),
(624,550,l),
(612,570,l)
);
},
{
closed = 1;
nodes = (
(719,-44,l),
(730,11,l),
(221,157,l),
(199,92,l)
);
},
{
closed = 1;
nodes = (
(300,141,l),
(278,153,l),
(261,134,l),
(292,127,l)
);
},
{
closed = 1;
nodes = (
(652,-115,l),
(459,-59,o),
(369,-31,o),
(176,21,c),
(143,43,o),
(140,59,o),
(136,77,c),
(179,200,l),
(136,205,l),
(70,73,l),
(70,25,o),
(115,-30,o),
(173,-53,c),
(394,-112,o),
(662,-186,o),
(781,-222,c),
(811,-169,l)
);
},
{
closed = 1;
nodes = (
(379,241,l),
(404,246,l),
(406,261,l),
(376,257,l)
);
}
);
width = 746;
}
);
note = or_t_sa;
}
{
glyphname = or_t_ta;
layers = (
{
layerId = m01;
shapes = (
{
closed = 1;
nodes = (
(638,42,l),
(647,32,o),
(651,35,o),
(648,31,cs),
(721,111,o),
(779,239,o),
(779,321,cs),
(779,518,o),
(608,672,o),
(391,672,cs),
(211,672,o),
(70,564,o),
(70,427,cs),
(70,350,o),
(103,271,o),
(145,248,cs),
(168,236,o),
(241,204,o),
(303,226,cs),
(331,236,l),
(331,273,l),
(256,277,o),
(214,278,o),
(179,298,cs),
(160,308,o),
(140,358,o),
(140,427,cs),
(140,543,o),
(237,611,o),
(391,611,cs),
(586,611,o),
(709,502,o),
(709,321,cs),
(709,247,o),
(654,127,o),
(590,61,c),
(572,35,o),
(572,17,o),
(593,-2,c),
(823,-102,l),
(851,-51,l)
);
},
{
closed = 1;
nodes = (
(485,218,o),
(528,250,o),
(553,283,cs),
(598,342,o),
(609,421,o),
(552,471,cs),
(483,531,o),
(382,487,o),
(348,424,cs),
(332,395,l),
(394,368,l),
(410,398,ls),
(431,437,o),
(470,460,o),
(506,429,cs),
(529,409,o),
(524,352,o),
(497,317,cs),
(475,287,o),
(449,253,o),
(381,215,c),
(400,186,l),
(432,198,ls)
);
},
{
closed = 1;
nodes = (
(239,294,o),
(172,238,o),
(176,150,cs),
(181,31,o),
(292,-2,o),
(383,-1,cs),
(466,0,o),
(561,48,o),
(562,135,cs),
(563,208,o),
(475,263,o),
(436,237,c),
(416,208,l),
(444,203,ls),
(465,200,o),
(493,178,o),
(492,135,cs),
(491,82,o),
(438,56,o),
(383,55,cs),
(308,54,o),
(249,76,o),
(246,152,cs),
(244,202,o),
(273,216,o),
(303,230,cs),
(329,242,l),
(297,270,l)
);
}
);
width = 854;
}
);
note = or_t_ta;
}
{
glyphname = or_t_ukaar;
layers = (
{
layerId = m01;
shapes = (
{
closed = 1;
nodes = (
(966,-2,ls),
(922,-16,o),
(876,-18,qs),
(866,-19,o),
(836,-19,o),
(769,-15,o),
(754,-15,q),
(759,157,ls),
(760,179,o),
(760,201,qs),
(760,287,o),
(739,371,qs),
(706,505,o),
(629,589,qs),
(578,645,o),
(446,704,o),
(379,704,qs),
(311,704,o),
(192,650,o),
(150,605,qs),
(70,518,o),
(70,397,qs),
(70,355,o),
(81,331,qs),
(91,307,o),
(106,292,qs),
(133,266,o),
(173,261,q),
(150,233,l),
(146,229,l),
(143,209,o),
(143,195,qs),
(143,160,o),
(173,91,o),
(206,62,qs),
(272,3,o),
(369,3,qs),
(396,3,o),
(422,8,qs),
(494,24,o),
(586,121,o),
(593,183,qs),
(594,193,o),
(594,202,qs),
(594,253,o),
(559,280,qs),
(530,303,o),
(487,303,qs),
(475,303,o),
(464,301,qs),
(422,294,o),
(393,264,qs),
(370,240,o),
(364,209,qs),
(361,198,o),
(361,167,o),
(368,149,qs),
(380,118,o),
(407,97,qs),
(419,87,o),
(435,81,q),
(403,60,o),
(369,60,qs),
(320,60,o),
(281,95,qs),
(258,116,o),
(235,168,o),
(235,195,qs),
(235,204,o),
(236,212,q),
(322,316,l),
(317,327,l),
(316,329,l),
(297,367,l),
(189,319,l),
(186,321,o),
(184,323,qs),
(163,345,o),
(163,397,qs),
(163,447,o),
(198,542,o),
(261,610,o),
(341,646,o),
(379,646,qs),
(417,646,o),
(457,628,qs),
(508,606,o),
(549,561,qs),
(618,486,o),
(648,362,qs),
(668,283,o),
(668,201,qs),
(662,-16,l),
(578,-19,o),
(486,-34,qs),
(438,-41,o),
(410,-52,qs),
(364,-70,o),
(320,-131,o),
(320,-168,qs),
(320,-215,o),
(353,-253,qs),
(380,-286,o),
(472,-324,o),
(531,-324,qs),
(581,-324,o),
(625,-308,qs),
(681,-288,o),
(746,-208,o),
(750,-158,qs),
(753,-73,l),
(765,-73,o),
(800,-75,qs),
(832,-77,o),
(855,-77,qs),
(934,-77,o),
(1007,-54,q),
(989,5,l)
);
},
{
closed = 1;
nodes = (
(436,-110,o),
(459,-101,qs),
(474,-95,o),
(508,-90,qs),
(588,-77,o),
(660,-74,q),
(658,-156,l),
(654,-193,o),
(611,-246,o),
(579,-258,qs),
(557,-266,o),
(531,-266,qs),
(468,-266,o),
(435,-227,qs),
(412,-201,o),
(412,-168,qs),
(412,-144,o)
);
},
{
closed = 1;
nodes = (
(458,162,qs),
(454,173,o),
(454,186,qs),
(454,215,o),
(473,235,qs),
(479,241,o),
(486,245,q),
(495,239,o),
(500,222,qs),
(502,213,o),
(502,202,qs),
(502,166,o),
(482,131,q),
(466,141,o)
);
}
);
width = 818;
}
);
note = or_t_ukaar;
}
{
glyphname = or_th_ikaar;
layers = (
{
background = {
shapes = (
{
closed = 1;
nodes = (
(547,-254,l),
(570,-263,o),
(588,-282,qs),
(610,-307,l),
(668,-254,l),
(637,-220,o),
(589,-203,q),
(182,-86,l),
(280,-20,l),
(321,-33,o),
(370,-33,qs),
(411,-33,o),
(452,-23,qs),
(533,-4,o),
(596,45,qs),
(599,48,o),
(603,51,q),
(603,-7,l),
(695,-7,l),
(695,692,l),
(603,692,l),
(603,176,l),
(574,122,o),
(525,83,qs),
(475,44,o),
(419,31,qs),
(394,25,o),
(370,25,qs),
(336,25,o),
(278,50,o),
(257,73,qs),
(222,111,o),
(222,163,qs),
(222,239,o),
(293,312,qs),
(305,323,o),
(368,379,o),
(385,400,qs),
(434,457,o),
(434,516,qs),
(434,523,o),
(434,529,qs),
(428,588,o),
(375,625,qs),
(329,659,o),
(264,659,qs),
(254,659,o),
(243,658,qs),
(164,650,o),
(65,538,o),
(65,458,qs),
(65,446,o),
(67,429,qs),
(73,396,l),
(125,404,ls),
(162,410,o),
(180,437,qs),
(189,451,o),
(189,467,qs),
(189,495,o),
(165,513,q),
(175,543,o),
(194,565,qs),
(223,598,o),
(258,601,q),
(261,602,o),
(264,602,qs),
(286,602,o),
(306,588,qs),
(338,565,o),
(342,525,qs),
(342,521,o),
(342,516,qs),
(342,495,o),
(324,450,o),
(289,409,o),
(227,354,o),
(215,342,qs),
(130,256,o),
(130,163,qs),
(130,96,o),
(176,45,qs),
(191,29,o),
(208,16,q),
(68,-78,l),
(68,-89,l),
(68,-99,l),
(68,-117,l)
);
}
);
};
layerId = m01;
shapes = (
{
ref = or_tha;
},
{
closed = 1;
nodes = (
(637,-227,o),
(618,-212,o),
(601,-206,cs),
(462,-157,o),
(316,-114,o),
(171,-67,c),
(171,-85,l),
(298,10,l),
(256,55,l),
(101,-61,l),
(101,-105,l),
(258,-156,o),
(419,-208,o),
(579,-260,c),
(638,-307,l),
(676,-270,l),
(655,-247,ls)
);
}
);
width = 737;
}
);
note = or_th_ikaar;
}
{
glyphname = or_ya_phalaa;
layers = (
{
layerId = m01;
shapes = (
{
closed = 1;
nodes = (
(-95,-4,o),
(-153,-4,qs),
(-230,-4,o),
(-281,-44,qs),
(-304,-63,o),
(-331,-113,o),
(-331,-141,qs),
(-331,-181,o),
(-304,-211,qs),
(-293,-223,o),
(-278,-232,q),
(-340,-269,o),
(-365,-333,qs),
(-381,-375,l),
(-313,-369,ls),
(-292,-366,o),
(-264,-345,o),
(-264,-330,qs),
(-264,-327,o),
(-264,-324,q),
(-259,-316,o),
(-254,-309,q),
(-236,-339,o),
(-202,-355,qs),
(-165,-373,o),
(-121,-373,qs),
(-73,-373,o),
(-34,-353,q),
(46,-353,l),
(46,-25,l),
(-46,-25,l),
(-46,-27,l)
);
},
{
closed = 1;
nodes = (
(-104,-223,l),
(-104,-222,l),
(-104,-192,l),
(-205,-194,l),
(-215,-192,o),
(-224,-183,qs),
(-239,-166,o),
(-239,-140,qs),
(-239,-122,o),
(-222,-90,o),
(-208,-80,qs),
(-185,-61,o),
(-153,-61,qs),
(-126,-61,o),
(-95,-77,qs),
(-67,-91,o),
(-46,-118,q),
(-46,-265,l),
(-60,-289,o),
(-82,-303,qs),
(-102,-315,o),
(-121,-315,qs),
(-133,-315,o),
(-144,-310,qs),
(-160,-302,o),
(-169,-286,qs),
(-177,-274,o),
(-178,-260,q),
(-104,-243,l)
);
}
);
width = 0;
}
);
note = or_ya_phalaa;
}
